@startuml
class "Chrysalis::BaseNamedElement" as C_0005941615759101781899
class C_0005941615759101781899 {
#BaseNamedElement() = default : void
#BaseNamedElement(const std::string & name) : void
..
+getAlias() const : const std::string &
+getName() const : const std::string &
+hasAlias() const : bool
#serialize<Archive>(Archive & archive, const unsigned int) : void
+setAlias(const std::string & alias) : void
+setName(const std::string & name) : void
__
-alias_ : boost::optional<std::string>
-name_ : std::string
}
class "Chrysalis::AssociativeContainer<T>" as C_0008219096566301061159
class C_0008219096566301061159 {
+AssociativeContainer() = default : void
+AssociativeContainer(std::initializer_list<T *> items) : void
+~AssociativeContainer() = default : void
..
+operator[](size_t index) const : T *
..
+add(T * item) : void
+begin() const : typename std::vector<T *>::const_iterator
+count() const : size_t
+end() const : typename std::vector<T *>::const_iterator
__
-items_ : std::vector<T *>
}
class "Chrysalis::CompositiveContainer<T>" as C_0005688742674269325206
class C_0005688742674269325206 {
+CompositiveContainer() = default : void
+CompositiveContainer(const std::initializer_list<T *> & items) : void
+~CompositiveContainer() : void
__
}
class "Chrysalis::NamedElementsContainer<T>" as C_0004278681173875969640
class C_0004278681173875969640 {
+add(T * item) : void
+get(const std::string & name) const : T *
+has(const std::string & name) const : bool
-serialize<Archive>(Archive & archive, const unsigned int) : void
__
-names_ : std::unordered_map<std::string,T *>
}
abstract "Chrysalis::ParameterObserver" as C_0000003872413291578334
abstract C_0000003872413291578334 {
#ParameterObserver() = default : void
#~ParameterObserver() constexpr = default : void
..
{abstract} +valueChanged(double value) = 0 : void
__
}
class "Chrysalis::Parameter" as C_0012811662139665247956
class C_0012811662139665247956 {
-Parameter() = default : void
+Parameter(const std::string & name) : void
..
{static} +create(const std::string & name, double value) : Parameter *
{static} +createDefault(const std::string & name, double defaultValue) : Parameter *
+getDefaultValue() const : double
+getValue() const : double
+hasDefaultValue() const : bool
+hasValue() const : bool
+isValid() const : bool
-serialize<Archive>(Archive & archive, const unsigned int) : void
+setDefaultValue(double defaultValue) : void
+setValue(double value) : void
__
-defaultValue_ : boost::optional<double>
-value_ : boost::optional<double>
}
class "Chrysalis::ScopedNamedElementsContainer<T>" as C_0013689811739584759896
class C_0013689811739584759896 {
+ScopedNamedElementsContainer() : void
+ScopedNamedElementsContainer(const ScopedNamedElementsContainer<T> * parent) : void
..
+get(const std::string & name) const : T *
+has(const std::string & name) const : bool
__
-parent_ : const ScopedNamedElementsContainer<T> *
}
class "Chrysalis::Option" as C_0018272832358235078784
class C_0018272832358235078784 {
-Option() : void
+Option(const std::string & name) : void
..
{static} +createDefault(const std::string & name, bool isEnabled) : Option *
-serialize<Archive>(Archive & archive, const unsigned int) : void
+toggle() : void
__
}
class "Chrysalis::BaseObserver<T>" as C_0014592205157828846112
class C_0014592205157828846112 {
#BaseObserver() = default : void
#~BaseObserver() = default : void
..
#observe(const BaseObservable<T> * observable) : void
__
}
class "Chrysalis::BaseObserver<Chrysalis::PointObserver>" as C_0011714416178498922510
class C_0011714416178498922510 {
__
}
abstract "Chrysalis::PointObserver" as C_0006271128212356082639
abstract C_0006271128212356082639 {
#PointObserver() = default : void
..
{abstract} +pointMoved(const Point * point) = 0 : void
__
}
class "Chrysalis::Point" as C_0004642218715827055853
class C_0004642218715827055853 {
+Point(const CG::Point & point) : void
+Point(double x, double y) : void
..
+operator+(const CG::Vector & vector) const : CG::Point
+operator-(const Point & other) const : CG::Vector
..
+move(CG::Point point) : void
+operator Point_2() const : const CG::CPoint
+operator const CGAL::Point_2<CGAL::Epick> &() const : const CG::Point &
+x() const : const double &
+y() const : const double &
__
-point_ : CG::Point
}
class "Chrysalis::Outline" as C_0012923087791918137441
class C_0012923087791918137441 {
-Outline() = default : void
+Outline(const std::string & name) : void
..
+add(const Point * point) : void
+points() const : const std::vector<const Point *> &
-serialize<Archive>(Archive & archive, const unsigned int) : void
__
-points_ : std::vector<const Point *>
}
class "Chrysalis::Curve" as C_0018156493150910561312
class C_0018156493150910561312 {
+Curve(CG::Point handleFrom, CG::Point handleTo, const std::vector<CG::Point> & points) : void
..
+curvePoints(double distance) const : std::vector<CG::Point>
__
-spline_ : tinyspline::BSpline
}
class "Chrysalis::ProjectSpace" as C_0007088239576659478452
class C_0007088239576659478452 {
+~ProjectSpace() : void
..
+addCurve(const Point * from, const Point * to, const CG::Segment & segmentFrom, const CG::Segment & segmentTo, const std::vector<CG::Point> & points) : Curve *
+addPoint(double x, double y) : Point *
+addPoint(const CG::Point & point) : Point *
+getCurve(const Point * from, const Point * to) const : const Curve *
+hasCurve(const Point * from, const Point * to) const : bool
+movePoint(const Point * point, CG::Point position) const : void
{static} -serialize<Archive>(Archive &, const unsigned int) : void
__
-curves_ : std::unordered_map<const Point *,std::unordered_map<const Point *,Curve *>>
-points_ : std::unordered_set<Point *>
}
abstract "Chrysalis::PatternSpaceObserver" as C_0014124802283436931215
abstract C_0014124802283436931215 {
#PatternSpaceObserver() = default : void
#~PatternSpaceObserver() constexpr = default : void
..
{abstract} +curveAdded(const Curve * curve) = 0 : void
{abstract} +pointAdded(const Point * point) = 0 : void
{abstract} +relativePointConnectionAdded(const Point * from, const Point * to) = 0 : void
{abstract} +relativePointConnectionRemoved(const Point * from, const Point * to) = 0 : void
__
}
class "Chrysalis::NamedElementsContainer<Chrysalis::Outline>" as C_0011346594566273340276
class C_0011346594566273340276 {
__
}
class "Chrysalis::PatternSpace" as C_0006410388496936549037
class C_0006410388496936549037 {
+PatternSpace(OutlineContainer * outline) : void
+~PatternSpace() : void
..
+addPoint(const std::string & name, const Point * point) : void
+getLastPoint() const : const Point *
+getOutline() const : OutlineContainer *
+getPoint(const std::string & name) const : const Point *
+getPoints() const : const std::unordered_map<std::string,const Point *> &
+hasPoint(const std::string & name) const : bool
__
-lastPoint_ : const Point *
-outline_ : OutlineContainer *
-points_ : std::unordered_map<std::string,const Point *>
}
class "Chrysalis::Pattern" as C_0005824426893526781565
class C_0005824426893526781565 {
-Pattern() = default : void
+Pattern(const std::string & name, PatternSpace * space) : void
+~Pattern() : void
..
{static} +create(const std::string & name) : Pattern *
+getSpace() const : PatternSpace *
-serialize<Archive>(Archive & archive, const unsigned int) : void
__
-space_ : PatternSpace *
}
class "Chrysalis::Expression" as C_0016508219162996417863
class C_0016508219162996417863 {
-Expression() = default : void
+Expression(const std::string & name, const args::number * expression) : void
+~Expression() : void
..
#calculate() const : double
+isValid() const : bool
-serialize<Archive>(Archive & archive, const unsigned int) : void
__
-expression_ : const args::number *
}
abstract "Chrysalis::BaseInstruction" as C_0002610049402694154836
abstract C_0002610049402694154836 {
#BaseInstruction() = default : void
+~BaseInstruction() constexpr = default : void
..
{abstract} +execute() = 0 : void
{abstract} +isValid() = 0 : bool
{static} -serialize<Archive>(Archive &, const unsigned int) : void
__
}
class "Chrysalis::ScopedNamedElementsContainer<Chrysalis::Option>" as C_0012830258875211278697
class C_0012830258875211278697 {
__
}
class "Chrysalis::ScopedNamedElementsContainer<Chrysalis::Expression>" as C_0010948345871383058968
class C_0010948345871383058968 {
__
}
class "Chrysalis::BaseInstructionsContainer<T>" as C_0009832473294063137986
class C_0009832473294063137986 {
+BaseInstructionsContainer(OptionsContainer * options, ExpressionsContainer * expressions) : void
..
+execute() : void
+expressions() const : ExpressionsContainer *
+isValid() : bool
+options() const : OptionsContainer *
__
-expressions_ : ExpressionsContainer *
-options_ : OptionsContainer *
}
class "Chrysalis::NamedElementsContainer<Chrysalis::Pattern>" as C_0000137605349055924040
class C_0000137605349055924040 {
__
}
class "Chrysalis::NamedElementsContainer<Chrysalis::Parameter>" as C_0009799515597078618207
class C_0009799515597078618207 {
__
}
class "Chrysalis::BaseInstructionsContainer<Chrysalis::BaseInstruction>" as C_0006795609084469128677
class C_0006795609084469128677 {
__
}
class "Chrysalis::Project" as C_0008495545694619727706
class C_0008495545694619727706 {
+Project(std::string name, ProjectSpace * space, PatternsContainer * patterns, ParametersContainer * parameters, OptionsContainer * options, ExpressionsContainer * expressions, InstructionsContainer * instructions) : void
+~Project() : void
..
{static} +create() : Project *
{static} +create(const std::string & name) : Project *
+getExpressions() const : ExpressionsContainer *
+getInstructions() const : InstructionsContainer *
+getName() : std::string
+getOptions() const : OptionsContainer *
+getParameters() const : ParametersContainer *
+getPatterns() const : PatternsContainer *
+getSpace() const : ProjectSpace *
{static} +read(const std::string & filePath) : Project *
+setName(const std::string & name) : void
{static} +write(const std::string & filePath, Project * project) : void
__
{static} +PROJECT_FILE_SUFFIX : const char *const
{static} +PROJECT_NAME_FILTER : const char *const
-expressions_ : ExpressionsContainer *
-instructions_ : InstructionsContainer *
-name_ : std::string
-options_ : OptionsContainer *
-parameters_ : ParametersContainer *
-patterns_ : PatternsContainer *
-space_ : ProjectSpace *
}
class "Chrysalis::PatternImporter" as C_0002206756607826776811
class C_0002206756607826776811 {
+PatternImporter(Project * project) : void
+~PatternImporter() : void
..
+import() const : void
__
-project_ : Project *
}
class "BaseObservable<T>" as C_0002156575163525990045
class C_0002156575163525990045 {
#BaseObservable() = default : void
#~BaseObservable() = default : void
..
+addObserver(T * observer) : void
+notify<Args...,CallArgs...>(void (T::*)(Args...) function, CallArgs &&... args) : void
__
-observers_ : std::forward_list<T *>
}
class "BaseObservable<Chrysalis::ParameterObserver>" as C_0007619089904892218042
class C_0007619089904892218042 {
__
}
class "UI::ParameterWidget" as C_0011673986955732978878
class C_0011673986955732978878 {
+ParameterWidget(QWidget * parent = nullptr) : void
+~ParameterWidget() : void
..
+set(Chrysalis::Parameter * parameter) : void
__
-parameter_ : Chrysalis::Parameter *
-ui : Ui::ParameterWidget *
}
class "UI::BaseDialog" as C_0010507882201943938998
class C_0010507882201943938998 {
+BaseDialog() : void
__
}
class "UI::BaseModel<T>" as C_0000760598864925262687
class C_0000760598864925262687 {
#BaseModel(T * data) : void
..
+data(const QModelIndex & index, const int role) const : QVariant
+rowCount(const QModelIndex & parent) const : int
__
-data_ : T *
}
class "UI::BaseModel<Chrysalis::NamedElementsContainer<Chrysalis::Parameter>>" as C_0003395603417038681163
class C_0003395603417038681163 {
__
}
class "UI::ParametersModel" as C_0008639774122268316592
class C_0008639774122268316592 {
+ParametersModel(Chrysalis::ParametersContainer * parameters) : void
__
}
class "UI::BaseDelegate<W,C>" as C_0007144605065180177457
class C_0007144605065180177457 {
+BaseDelegate(QObject * parent) : void
..
+createEditor(QWidget * parent, const QStyleOptionViewItem & option, const QModelIndex & index) const : QWidget *
+setEditorData(QWidget * editor, const QModelIndex & index) const : void
+sizeHint(const QStyleOptionViewItem & option, const QModelIndex & index) const : QSize
+updateEditorGeometry(QWidget * editor, const QStyleOptionViewItem & option, const QModelIndex & index) const : void
__
}
class "UI::BaseDelegate<UI::ParameterWidget,Chrysalis::Parameter>" as C_0011409645942090549001
class C_0011409645942090549001 {
__
}
class "UI::ParameterDelegate" as C_0015361787604387007109
class C_0015361787604387007109 {
+ParameterDelegate(QObject * parent) : void
__
}
class "UI::PatternImportDialog" as C_0006597931841462278842
class C_0006597931841462278842 {
+PatternImportDialog(Chrysalis::PatternImporter * importer, ParametersModel * model, ParameterDelegate * delegate) : void
+~PatternImportDialog() : void
..
+accept() : void
__
-delegate_ : ParameterDelegate *
-importer_ : Chrysalis::PatternImporter *
-model_ : ParametersModel *
-ui : Ui::PatternImportDialog *
}
class "BaseObservable<Chrysalis::PointObserver>" as C_0000658342064330119157
class C_0000658342064330119157 {
__
}
class "BaseObservable<Chrysalis::PatternSpaceObserver>" as C_0002692846997820672233
class C_0002692846997820672233 {
__
}
C_0008219096566301061159 <|-- C_0005688742674269325206
C_0005688742674269325206 <|-- C_0004278681173875969640
C_0005941615759101781899 <|-- C_0012811662139665247956
C_0007619089904892218042 <|-- C_0012811662139665247956
C_0004278681173875969640 <|-- C_0013689811739584759896
C_0005941615759101781899 <|-- C_0018272832358235078784
C_0011714416178498922510 ..|> C_0014592205157828846112
C_0011714416178498922510 <|-- C_0006271128212356082639
C_0000658342064330119157 <|-- C_0004642218715827055853
C_0012923087791918137441 --> C_0004642218715827055853 : -points_
C_0005941615759101781899 <|-- C_0012923087791918137441
C_0007088239576659478452 *-- C_0004642218715827055853 : -points_
C_0007088239576659478452 *-- C_0004642218715827055853 : -curves_
C_0007088239576659478452 *-- C_0018156493150910561312 : -curves_
C_0011346594566273340276 ..|> C_0004278681173875969640
C_0006410388496936549037 --> C_0004642218715827055853 : -lastPoint_
C_0006410388496936549037 *-- C_0012923087791918137441 : -outline_
C_0006410388496936549037 *-- C_0011346594566273340276 : -outline_
C_0006410388496936549037 *-- C_0004278681173875969640 : -outline_
C_0006410388496936549037 --> C_0004642218715827055853 : -points_
C_0002692846997820672233 <|-- C_0006410388496936549037
C_0005824426893526781565 *-- C_0006410388496936549037 : -space_
C_0005941615759101781899 <|-- C_0005824426893526781565
C_0005941615759101781899 <|-- C_0016508219162996417863
C_0012830258875211278697 ..|> C_0013689811739584759896
C_0010948345871383058968 ..|> C_0013689811739584759896
C_0009832473294063137986 *-- C_0018272832358235078784 : -options_
C_0009832473294063137986 *-- C_0012830258875211278697 : -options_
C_0009832473294063137986 *-- C_0013689811739584759896 : -options_
C_0009832473294063137986 *-- C_0016508219162996417863 : -expressions_
C_0009832473294063137986 *-- C_0010948345871383058968 : -expressions_
C_0009832473294063137986 *-- C_0013689811739584759896 : -expressions_
C_0002610049402694154836 <|-- C_0009832473294063137986
C_0005688742674269325206 <|-- C_0009832473294063137986
C_0000137605349055924040 ..|> C_0004278681173875969640
C_0009799515597078618207 ..|> C_0004278681173875969640
C_0006795609084469128677 ..|> C_0009832473294063137986
C_0008495545694619727706 *-- C_0007088239576659478452 : -space_
C_0008495545694619727706 *-- C_0018272832358235078784 : -options_
C_0008495545694619727706 *-- C_0012830258875211278697 : -options_
C_0008495545694619727706 *-- C_0013689811739584759896 : -options_
C_0008495545694619727706 *-- C_0005824426893526781565 : -patterns_
C_0008495545694619727706 *-- C_0000137605349055924040 : -patterns_
C_0008495545694619727706 *-- C_0004278681173875969640 : -patterns_
C_0008495545694619727706 *-- C_0012811662139665247956 : -parameters_
C_0008495545694619727706 *-- C_0009799515597078618207 : -parameters_
C_0008495545694619727706 *-- C_0004278681173875969640 : -parameters_
C_0008495545694619727706 *-- C_0016508219162996417863 : -expressions_
C_0008495545694619727706 *-- C_0010948345871383058968 : -expressions_
C_0008495545694619727706 *-- C_0013689811739584759896 : -expressions_
C_0008495545694619727706 *-- C_0002610049402694154836 : -instructions_
C_0008495545694619727706 *-- C_0006795609084469128677 : -instructions_
C_0008495545694619727706 *-- C_0009832473294063137986 : -instructions_
C_0002206756607826776811 *-- C_0008495545694619727706 : -project_
C_0007619089904892218042 ..|> C_0002156575163525990045
C_0011673986955732978878 --> C_0012811662139665247956 : -parameter_
C_0003395603417038681163 ..|> C_0000760598864925262687
C_0003395603417038681163 <|-- C_0008639774122268316592
C_0011409645942090549001 ..|> C_0007144605065180177457
C_0011409645942090549001 <|-- C_0015361787604387007109
C_0006597931841462278842 *-- C_0002206756607826776811 : -importer_
C_0006597931841462278842 *-- C_0008639774122268316592 : -model_
C_0006597931841462278842 *-- C_0015361787604387007109 : -delegate_
C_0010507882201943938998 <|-- C_0006597931841462278842
C_0000658342064330119157 ..|> C_0002156575163525990045
C_0002692846997820672233 ..|> C_0002156575163525990045
skinparam class {
  BackgroundColor #EAFAF1
  BorderColor #1E8449
  FontColor #0B5345
  AttributeFontColor #1E8449
  StereotypeFontColor #1E8449
  FontStyle Bold
}

skinparam class<<UI>> {
  BackgroundColor #F5EEF8
  BorderColor #8E44AD
  FontColor #4A235A
  AttributeFontColor #6C3483
  StereotypeFontColor #6C3483
}

skinparam class<<Base>> {
  BackgroundColor #F2F3F4
  BorderColor #2C3E50
  BorderThickness 3
  FontSize 16
  FontColor #2C3E50
  AttributeFontColor #566573
  StereotypeFontColor #808B96
  FontStyle Italic
}

skinparam class<<Model>> {
  BackgroundColor #E8F8F5
  BorderColor #0E6655
  BorderThickness 3
  FontSize 16
  FontColor #0E6655
  AttributeFontColor #117A65
  StereotypeFontColor #148F77
  FontStyle Italic
}


 class C_0005941615759101781899 <<Chrysalis>> <<Base>> 

 class C_0008219096566301061159 <<Chrysalis>>  

 class C_0005688742674269325206 <<Chrysalis>>  

 class C_0004278681173875969640 <<Chrysalis>>  

 class C_0002156575163525990045 <<Base>> 

 class C_0000003872413291578334 <<Chrysalis>>  

 class C_0007619089904892218042 <<Base>> 

 class C_0012811662139665247956 <<Chrysalis>>  

 class C_0011673986955732978878 <<UI>>  

 class C_0013689811739584759896 <<Chrysalis>>  

 class C_0018272832358235078784 <<Chrysalis>>  

 class C_0014592205157828846112 <<Chrysalis>> <<Base>> 

 class C_0011714416178498922510 <<Chrysalis>> <<Base>> 

 class C_0006271128212356082639 <<Chrysalis>>  

 class C_0000658342064330119157 <<Base>> 

 class C_0004642218715827055853 <<Chrysalis>>  

 class C_0012923087791918137441 <<Chrysalis>>  

 class C_0018156493150910561312 <<Chrysalis>>  

 class C_0007088239576659478452 <<Chrysalis>>  

 class C_0014124802283436931215 <<Chrysalis>>  

 class C_0011346594566273340276 <<Chrysalis>>  

 class C_0002692846997820672233 <<Base>> 

 class C_0006410388496936549037 <<Chrysalis>>  

 class C_0005824426893526781565 <<Chrysalis>>  

 class C_0016508219162996417863 <<Chrysalis>>  

 class C_0002610049402694154836 <<Chrysalis>> <<Base>> 

 class C_0012830258875211278697 <<Chrysalis>>  

 class C_0010948345871383058968 <<Chrysalis>>  

 class C_0009832473294063137986 <<Chrysalis>> <<Base>> 

 class C_0000137605349055924040 <<Chrysalis>>  

 class C_0009799515597078618207 <<Chrysalis>>  

 class C_0006795609084469128677 <<Chrysalis>> <<Base>> 

 class C_0008495545694619727706 <<Chrysalis>>  

 class C_0010507882201943938998 <<UI>> <<Base>> 

 class C_0000760598864925262687 <<UI>> <<Base>> 

 class C_0003395603417038681163 <<UI>> <<Base>> 

 class C_0008639774122268316592 <<UI>>  

 class C_0002206756607826776811 <<Chrysalis>>  

 class C_0007144605065180177457 <<UI>> <<Base>> 

 class C_0011409645942090549001 <<UI>> <<Base>> 

 class C_0015361787604387007109 <<UI>>  

 class C_0006597931841462278842 <<UI>>  



'Generated with clang-uml, version 0.6.2
'LLVM version clang version 20.1.7 (https://github.com/llvm/llvm-project.git 6146a88f60492b520a36f8f8f3231e15f3cc6082)
@enduml
