@startuml
class "Vertex" as C_0002326256006988294087
class C_0002326256006988294087 {
+Vertex(float x, float y) : void
..
{static} +getLayout() : std::vector<Layout>
+x() const : float
+y() const : float
__
-x_ : float
-y_ : float
}
class "Vertex::Layout" as C_0002155889465830571527
class C_0002155889465830571527 {
__
+offset : void *
+size : int
}
class "SpaceVertex" as C_0013753387506434927655
class C_0013753387506434927655 {
+SpaceVertex(float x, float y, float distance) : void
..
+distance() const : float
{static} +getLayout() : std::vector<Layout>
__
-distance_ : float
}
class "SpaceRendererData" as C_0005127897508348657534
class C_0005127897508348657534 {
+SpaceRendererData() : void
+~SpaceRendererData() : void
..
-addLine(const Point & from, const Point & to, double distance) const : int
-addPoint(const Point & point) const : void
+arrowsRanges() const : std::vector<Range>
-extendLine(int lineIndex, const Point & point, double distance) const : void
+getPoints() const : std::vector<SpaceVertex>
+getVBO() const : std::vector<SpaceVertex>
+linesRanges() const : std::vector<Range>
+pointsRange() const : Range
__
-p : Private *
}
class "SpaceRendererData::Range" as C_0003956790280424976785
class C_0003956790280424976785 {
+operator+(const std::vector<SpaceVertex> & vertices) const : Range
__
+count : size_t
+from : size_t
}
class "Space" as C_0000228797310809486917
class C_0000228797310809486917 {
+Space(SpaceRendererData * rendererData) : void
+~Space() : void
..
+addPoint(const std::string & name, double x, double y) : void
+addPoint(const std::string & fromPointName, const std::string & name, double angle, double length) : void
+addPoint(const std::string & fromPointName, const std::string & name, Direction direction, double length) : void
-addPoint(const std::string & name, const Point & point) : void
+angle(const std::string & from, const std::string & to) const : double
+distance(const std::string & from, const std::string & to) const : double
+getPoint(const std::string & name) : Point &
+getRendererData() const : const SpaceRendererData *
+nextPoint(const std::string & name, double angle, double length) : void
+nextPoint(const std::string & name, Direction direction, double length) : void
__
-lastPointName_ : std::string
-linesIndices_ : std::unordered_map<std::string,int>
-parentPoints_ : std::unordered_map<std::string,std::string>
-points_ : std::unordered_map<std::string,Point>
-rendererData_ : SpaceRendererData *
}
enum "Space::Direction" as C_0006255543702469591148
enum C_0006255543702469591148 {
RIGHT
LEFT
UP
DOWN
}
class "Chrysalis::Dart" as C_0009492302074556763060
class C_0009492302074556763060 {
+Dart(Space * space) : void
..
+addPoint(const std::string & pointName) : void
+getPoints() : std::vector<float>
+getPolygon() : Polygon &
__
-polygon_ : Polygon
-space_ : Space *
}
class "Chrysalis::Outline" as C_0012923087791918137441
class C_0012923087791918137441 {
+Outline(Space * space) : void
+~Outline() : void
..
+addDart(Dart * dart) : void
+addPoint(const std::string & pointName) : void
+getPoints() const : std::vector<std::vector<float>>
+getShape() const : std::vector<float>
__
-darts_ : std::forward_list<Dart *>
-polygon_ : Polygon_with_holes
-space_ : Space *
}
class "Chrysalis::Pattern" as C_0005824426893526781565
class C_0005824426893526781565 {
+Pattern(const std::string & name, Space * space, Outline * outline) : void
..
+addPoint(const std::string & name, double x, double y) const : void
+addPoint(const std::string & from, const std::string & to, const BaseArgument * angle, const BaseArgument * length) const : void
+addPoint(const std::string & from, const std::string & to, Space::Direction direction, const BaseArgument * length) const : void
+getOutline() const : std::vector<std::vector<float>>
+getShape() const : std::vector<float>
+nextPoint(const std::string & to, const BaseArgument * angle, const BaseArgument * length) const : void
+nextPoint(const std::string & to, Space::Direction direction, const BaseArgument * length) const : void
+sharePoint(const std::string & point, const Pattern * pattern) const : void
__
-name_ : std::string
-outline_ : Outline *
-space_ : Space *
}
class "Chrysalis::Parameter" as C_0012811662139665247956
class C_0012811662139665247956 {
+Parameter(const std::string & name, double value) : void
..
+getName() const : const std::string &
+getValue() const : double
+setValue(double value) : void
__
-name_ : std::string
-value_ : double
}
class "Chrysalis::Parameters" as C_0003412445458623038917
class C_0003412445458623038917 {
+~Parameters() : void
..
+addParameter(Parameter * parameter) : void
+at(int index) : Parameter *
+count() const : unsigned int
+getParameter(const std::string & name) : Parameter *
__
-parameters_ : std::unordered_map<std::string,Parameter *>
}
class "Chrysalis::Project" as C_0008495545694619727706
class C_0008495545694619727706 {
+Project(const std::string & name, Parameters * parameters) : void
+~Project() : void
..
+addPattern(Pattern * pattern) : void
{static} +create() : Project *
+getName() : std::string
+getParameters() const : Parameters *
+setName(const std::string & name) : void
__
-name_ : std::string
-parameters_ : Parameters *
-patterns_ : std::forward_list<Pattern *>
}
class "Chrysalis::Archive" as C_0002478467559743555641
class C_0002478467559743555641 {
+read(const char * filePath) : Project *
+write(const char * filePath, Project * project) : void
__
}
abstract "BaseArgument" as C_0014032639484775088103
abstract C_0014032639484775088103 {
#BaseArgument() = default : void
+~BaseArgument() constexpr = default : void
..
{abstract} +getValue() const = 0 : double
__
}
class "SpaceRendererData::Private" as C_0012658801633232851719
class C_0012658801633232851719 {
+addArrow(const Point & from, const Point & to) : void
__
+arrows_ : std::vector<std::vector<SpaceVertex>>
+lines_ : std::vector<std::vector<SpaceVertex>>
+points_ : std::vector<SpaceVertex>
}
class "Argument" as C_0017881155643566426614
class C_0017881155643566426614 {
+Argument(double value) : void
..
+getValue() const : double
__
-value_ : double
}
class "BinaryFunction" as C_0006214883631769309796
class C_0006214883631769309796 {
+BinaryFunction(BaseArgument * argumentLeft, BaseArgument * argumentRight, double (*)(double,double) function) : void
..
{static} +ADDITION(double a, double b) : double
{static} +DIVISION(double a, double b) : double
{static} +MAX(double a, double b) : double
{static} +MIN(double a, double b) : double
{static} +MULTIPLICATION(double a, double b) : double
{static} +SUBTRACTION(double a, double b) : double
+getValue() const : double
__
-argumentLeft : BaseArgument *
-argumentRight : BaseArgument *
-function : double (*)(double,double)
}
class "PatternRendererData" as C_0010500610705199261562
class C_0010500610705199261562 {
__
-vertices_ : std::vector<float>
}
class "VectorFunction" as C_0016617338678814122198
class C_0016617338678814122198 {
+VectorFunction(Space * space, const std::string & from, const std::string & to, double (*)(const VectorFunction *) function) : void
..
{static} +ANGLE(const VectorFunction * function) : double
{static} +LENGTH(const VectorFunction * function) : double
+getValue() const : double
__
-from : std::string
-function : double (*)(const VectorFunction *)
-space : Space *
-to : std::string
}
C_0002155889465830571527 --+ C_0002326256006988294087
C_0002326256006988294087 <|-- C_0013753387506434927655
C_0005127897508348657534 --> C_0012658801633232851719 : -p
C_0005127897508348657534 <.. C_0000228797310809486917 : +<<friend>>
C_0003956790280424976785 --+ C_0005127897508348657534
C_0000228797310809486917 --> C_0005127897508348657534 : -rendererData_
C_0006255543702469591148 --+ C_0000228797310809486917
C_0009492302074556763060 --> C_0000228797310809486917 : -space_
C_0012923087791918137441 --> C_0000228797310809486917 : -space_
C_0012923087791918137441 --> C_0009492302074556763060 : -darts_
C_0005824426893526781565 --> C_0000228797310809486917 : -space_
C_0005824426893526781565 --> C_0012923087791918137441 : -outline_
C_0014032639484775088103 <|-- C_0012811662139665247956
C_0003412445458623038917 --> C_0012811662139665247956 : -parameters_
C_0008495545694619727706 --> C_0003412445458623038917 : -parameters_
C_0008495545694619727706 --> C_0005824426893526781565 : -patterns_
C_0012658801633232851719 --+ C_0005127897508348657534
C_0012658801633232851719 o-- C_0013753387506434927655 : +points_
C_0012658801633232851719 o-- C_0013753387506434927655 : +arrows_
C_0012658801633232851719 o-- C_0013753387506434927655 : +lines_
C_0014032639484775088103 <|-- C_0017881155643566426614
C_0006214883631769309796 --> C_0014032639484775088103 : -argumentLeft
C_0006214883631769309796 --> C_0014032639484775088103 : -argumentRight
C_0014032639484775088103 <|-- C_0006214883631769309796
C_0016617338678814122198 --> C_0000228797310809486917 : -space
C_0014032639484775088103 <|-- C_0016617338678814122198
skinparam class {
  BackgroundColor #EAFAF1
  BorderColor #1E8449
  FontColor #0B5345
  AttributeFontColor #1E8449
  StereotypeFontColor #1E8449
  FontStyle Bold
}

skinparam class<<Base>> {
  BackgroundColor #F2F3F4
  BorderColor #2C3E50
  BorderThickness 3
  FontSize 16
  FontColor #2C3E50
  AttributeFontColor #566573
  StereotypeFontColor #808B96
  FontStyle Italic
}

                 class C_0014032639484775088103 <<Base>>                       

'Generated with clang-uml, version 0.6.2
'LLVM version clang version 20.1.7 (https://github.com/llvm/llvm-project.git 6146a88f60492b520a36f8f8f3231e15f3cc6082)
@enduml
