@startuml
class "Chrysalis::BaseNamedElement" as C_0005941615759101781899
class C_0005941615759101781899 {
#BaseNamedElement() = default : void
#BaseNamedElement(const std::string & name) : void
..
+getAlias() const : const std::string &
+getName() const : const std::string &
+hasAlias() const : bool
#serialize<Archive>(Archive & archive, const unsigned int) : void
+setAlias(const std::string & alias) : void
+setName(const std::string & name) : void
__
-alias_ : boost::optional<std::string>
-name_ : std::string
}
class "Chrysalis::Curve" as C_0018156493150910561312
class C_0018156493150910561312 {
+Curve(CG::Point handleFrom, CG::Point handleTo, const std::vector<CG::Point> & points) : void
..
+curvePoints(double distance) const : std::vector<CG::Point>
__
-spline_ : tinyspline::BSpline
}
class "Chrysalis::Point" as C_0004642218715827055853
class C_0004642218715827055853 {
+Point(const CG::Point & point) : void
+Point(double x, double y) : void
..
+operator+(const CG::Vector & vector) const : CG::Point
+operator-(const Point & other) const : CG::Vector
..
+move(CG::Point point) : void
+operator Point_2() const : const CG::CPoint
+operator const CGAL::Point_2<CGAL::Epick> &() const : const CG::Point &
+x() const : const double &
+y() const : const double &
__
-point_ : CG::Point
}
class "Chrysalis::ProjectSpace" as C_0007088239576659478452
class C_0007088239576659478452 {
+~ProjectSpace() : void
..
+addCurve(const Point * from, const Point * to, const CG::Segment & segmentFrom, const CG::Segment & segmentTo, const std::vector<CG::Point> & points) : Curve *
+addPoint(double x, double y) : Point *
+addPoint(const CG::Point & point) : Point *
+getCurve(const Point * from, const Point * to) const : const Curve *
+hasCurve(const Point * from, const Point * to) const : bool
+movePoint(const Point * point, CG::Point position) const : void
{static} -serialize<Archive>(Archive &, const unsigned int) : void
__
-curves_ : std::unordered_map<const Point *,std::unordered_map<const Point *,Curve *>>
-points_ : std::unordered_set<Point *>
}
abstract "Chrysalis::BaseInstruction" as C_0002610049402694154836
abstract C_0002610049402694154836 {
#BaseInstruction() = default : void
+~BaseInstruction() constexpr = default : void
..
{abstract} +execute() = 0 : void
{abstract} +isValid() = 0 : bool
{static} -serialize<Archive>(Archive &, const unsigned int) : void
__
}
class "Chrysalis::AssociativeContainer<T>" as C_0008219096566301061159
class C_0008219096566301061159 {
+AssociativeContainer() = default : void
+AssociativeContainer(std::initializer_list<T *> items) : void
+~AssociativeContainer() = default : void
..
+operator[](size_t index) const : T *
..
+add(T * item) : void
+begin() const : typename std::vector<T *>::const_iterator
+count() const : size_t
+end() const : typename std::vector<T *>::const_iterator
__
-items_ : std::vector<T *>
}
class "Chrysalis::CompositiveContainer<T>" as C_0005688742674269325206
class C_0005688742674269325206 {
+CompositiveContainer() = default : void
+CompositiveContainer(const std::initializer_list<T *> & items) : void
+~CompositiveContainer() : void
__
}
abstract "Chrysalis::BaseArgument<T>" as C_0004566211642871539975
abstract C_0004566211642871539975 {
#BaseArgument() = default : void
+~BaseArgument() = default : void
..
{abstract} +get() const = 0 : const T &
{abstract} +isValid() const = 0 : bool
{static} -serialize<Archive>(Archive &, const unsigned int) : void
__
}
class "Chrysalis::NamedElementsContainer<T>" as C_0004278681173875969640
class C_0004278681173875969640 {
+add(T * item) : void
+get(const std::string & name) const : T *
+has(const std::string & name) const : bool
-serialize<Archive>(Archive & archive, const unsigned int) : void
__
-names_ : std::unordered_map<std::string,T *>
}
class "Chrysalis::Outline" as C_0012923087791918137441
class C_0012923087791918137441 {
-Outline() = default : void
+Outline(const std::string & name) : void
..
+add(const Point * point) : void
+points() const : const std::vector<const Point *> &
-serialize<Archive>(Archive & archive, const unsigned int) : void
__
-points_ : std::vector<const Point *>
}
class "Chrysalis::NamedElementsContainer<Chrysalis::Outline>" as C_0011346594566273340276
class C_0011346594566273340276 {
__
}
class "Chrysalis::PatternSpace" as C_0006410388496936549037
class C_0006410388496936549037 {
+PatternSpace(OutlineContainer * outline) : void
+~PatternSpace() : void
..
+addPoint(const std::string & name, const Point * point) : void
+getLastPoint() const : const Point *
+getOutline() const : OutlineContainer *
+getPoint(const std::string & name) const : const Point *
+getPoints() const : const std::unordered_map<std::string,const Point *> &
+hasPoint(const std::string & name) const : bool
__
-lastPoint_ : const Point *
-outline_ : OutlineContainer *
-points_ : std::unordered_map<std::string,const Point *>
}
class "Chrysalis::AssociativeContainer<Chrysalis::PatternSpace>" as C_0001047017953527499081
class C_0001047017953527499081 {
__
}
class "Chrysalis::PatternsContainerArgument" as C_0014927223858222449226
class C_0014927223858222449226 {
+PatternsContainerArgument() = default : void
+PatternsContainerArgument(std::initializer_list<PatternSpace *> && items) : void
..
+all<Args...>(bool (PatternSpace::*)(Args...) const check, typename type_identity<Args>... args) const : _Bool
+empty() const : bool
+onAny<R,Args...>(R (PatternSpace::*)(Args...) const method, typename type_identity<Args>... args) const : R
-serialize<Archive>(Archive & archive, const unsigned int) : void
__
}
class "Chrysalis::BasePatternInstruction" as C_0012361199867370331426
class C_0012361199867370331426 {
#BasePatternInstruction(ProjectSpace * space, args::patterns * patterns) : void
+~BasePatternInstruction() : void
..
{static} -serialize<Archive>(Archive &, const unsigned int) : void
#space() const : ProjectSpace &
__
#patterns_ : args::patterns *
#space_ : ProjectSpace *
}
class "Chrysalis::Argument<T>" as C_0000892009465423237500
class C_0000892009465423237500 {
+Argument(const T & value) : void
..
+get() const : const T &
+isValid() const : bool
+set(const T & value) : void
__
-value_ : T
}
abstract "Chrysalis::BasePointArgument" as C_0013206232820539036909
abstract C_0013206232820539036909 {
#BasePointArgument() = default : void
+~BasePointArgument() constexpr = default : void
..
{abstract} +clone() const = 0 : BasePointArgument *
{abstract} +get() const = 0 : const Point *
+isValid() const : bool
{abstract} +name() const = 0 : const args::name *
{static} -serialize<Archive>(Archive &, const unsigned int) : void
__
}
abstract "Chrysalis::BaseCalculatedArgument<T>" as C_0006837253732787679527
abstract C_0006837253732787679527 {
#BaseCalculatedArgument() = default : void
#BaseCalculatedArgument(const T & value) : void
..
{abstract} #calculate() const = 0 : T
+get() const : const T &
-serialize<Archive>(Archive & archive, const unsigned int) : void
__
-value_ : boost::optional<T>
}
class "Chrysalis::BaseArgument<double>" as C_0001471877624587876994
class C_0001471877624587876994 {
__
}
class "Chrysalis::BaseCalculatedArgument<double>" as C_0014304995755461162082
class C_0014304995755461162082 {
__
}
abstract "Chrysalis::BinaryFunctionArgument" as C_0001365093100257756951
abstract C_0001365093100257756951 {
#BinaryFunctionArgument(const args::number * operand1, const args::number * operand2) : void
+~BinaryFunctionArgument() : void
..
#calculate() const : double
{abstract} #evaluate(double a, double b) const = 0 : double
+isValid() const : bool
-serialize<Archive>(Archive & archive, const unsigned int) : void
__
#operand1_ : const args::number *
#operand2_ : const args::number *
}
class "Chrysalis::BinaryFunctionArgument::Add" as C_0014087117419452374380
class C_0014087117419452374380 {
+Add(const args::number * operand1, const args::number * operand2) : void
#evaluate(double a, double b) const : double
__
}
class "Chrysalis::BinaryFunctionArgument::Subtract" as C_0014531108691559918537
class C_0014531108691559918537 {
+Subtract(const args::number * operand1, const args::number * operand2) : void
#evaluate(double a, double b) const : double
__
}
class "Chrysalis::BinaryFunctionArgument::Multiply" as C_0008794678997563482301
class C_0008794678997563482301 {
+Multiply(const args::number * operand1, const args::number * operand2) : void
#evaluate(double a, double b) const : double
__
}
class "Chrysalis::BinaryFunctionArgument::Divide" as C_0011584929275101058424
class C_0011584929275101058424 {
+Divide(const args::number * operand1, const args::number * operand2) : void
#evaluate(double a, double b) const : double
__
}
class "Chrysalis::BinaryFunctionArgument::Min" as C_0006793010056395472383
class C_0006793010056395472383 {
+Min(const args::number * operand1, const args::number * operand2) : void
#evaluate(double a, double b) const : double
__
}
class "Chrysalis::BinaryFunctionArgument::Max" as C_0006785425625185586705
class C_0006785425625185586705 {
+Max(const args::number * operand1, const args::number * operand2) : void
#evaluate(double a, double b) const : double
__
}
class "Chrysalis::OptionalArgument<T>" as C_0007143007386227679224
class C_0007143007386227679224 {
+OptionalArgument() = default : void
+OptionalArgument(const T * argument) : void
+~OptionalArgument() : void
..
+argument() const : const T *
+hasArgument() const : bool
-serialize<Archive>(Archive & archive, const unsigned int) : void
__
-argument_ : const T *
}
class "Chrysalis::Argument<std::string>" as C_0016949743096485278048
class C_0016949743096485278048 {
__
}
class "Chrysalis::PatternPointArgument" as C_0010060974190162873338
class C_0010060974190162873338 {
+PatternPointArgument(const args::name * name, const args::patterns * patterns) : void
+PatternPointArgument(const PatternPointArgument & other) : void
+~PatternPointArgument() : void
..
+clone() const : BasePointArgument *
+get() const : const Point *
+isValid() const : bool
+name() const : const args::name *
__
-name_ : const args::name *
-patterns_ : const args::patterns *
}
class "Chrysalis::BuildOutlineInstruction" as C_0014956221374281501729
class C_0014956221374281501729 {
+BuildOutlineInstruction(ProjectSpace * space, args::patterns * selectedPatterns, const args::name * outlineName, const PatternPointArgument * point) : void
+~BuildOutlineInstruction() : void
..
+execute() : void
+isValid() : bool
__
-outlineName_ : const args::name *
-point_ : const PatternPointArgument *
}
note top of C_0014956221374281501729
Syntax samples:
 out -> A -> B -> C // (3 instructions)
 out("Name") -> A -> B -> C
end note
class "Chrysalis::BaseCalculatedArgument<bool>" as C_0004214281036792883737
class C_0004214281036792883737 {
__
}
abstract "Chrysalis::ComparisonArgument" as C_0011503483743592691279
abstract C_0011503483743592691279 {
#ComparisonArgument(const args::number * value1, const args::number * value2) : void
+~ComparisonArgument() : void
..
#calculate() const : bool
{abstract} #evaluate(double a, double b) const = 0 : bool
+isValid() const : bool
-serialize<Archive>(Archive & archive, const unsigned int) : void
__
#value1_ : const args::number *
#value2_ : const args::number *
}
class "Chrysalis::ComparisonArgument::Equal" as C_0003507979535890577519
class C_0003507979535890577519 {
+Equal(const args::number * value1, const args::number * value2) : void
#evaluate(double a, double b) const : bool
__
}
class "Chrysalis::ComparisonArgument::NotEqual" as C_0007006118626761113406
class C_0007006118626761113406 {
+NotEqual(const args::number * value1, const args::number * value2) : void
#evaluate(double a, double b) const : bool
__
}
class "Chrysalis::ComparisonArgument::Greater" as C_0011193748446084086489
class C_0011193748446084086489 {
+Greater(const args::number * value1, const args::number * value2) : void
#evaluate(double a, double b) const : bool
__
}
class "Chrysalis::ComparisonArgument::GreaterEqual" as C_0003326406460771094547
class C_0003326406460771094547 {
+GreaterEqual(const args::number * value1, const args::number * value2) : void
#evaluate(double a, double b) const : bool
__
}
class "Chrysalis::ComparisonArgument::Less" as C_0008434583589805453528
class C_0008434583589805453528 {
+Less(const args::number * value1, const args::number * value2) : void
#evaluate(double a, double b) const : bool
__
}
class "Chrysalis::ComparisonArgument::LessEqual" as C_0003130365896066878896
class C_0003130365896066878896 {
+LessEqual(const args::number * value1, const args::number * value2) : void
#evaluate(double a, double b) const : bool
__
}
class "Chrysalis::BaseArgument<bool>" as C_0011019598324065455417
class C_0011019598324065455417 {
__
}
class "Chrysalis::ConditionalArgument" as C_0015836046502909272684
class C_0015836046502909272684 {
+ConditionalArgument(const args::condition * condition, const args::number * positive, const args::number * negative) : void
+~ConditionalArgument() : void
..
#calculate() const : double
+isValid() const : bool
__
-condition_ : const args::condition *
-negative_ : const args::number *
-positive_ : const args::number *
}
class "Chrysalis::ScopedNamedElementsContainer<T>" as C_0013689811739584759896
class C_0013689811739584759896 {
+ScopedNamedElementsContainer() : void
+ScopedNamedElementsContainer(const ScopedNamedElementsContainer<T> * parent) : void
..
+get(const std::string & name) const : T *
+has(const std::string & name) const : bool
__
-parent_ : const ScopedNamedElementsContainer<T> *
}
class "Chrysalis::Argument<bool>" as C_0013902376426351804888
class C_0013902376426351804888 {
__
}
class "Chrysalis::Option" as C_0018272832358235078784
class C_0018272832358235078784 {
-Option() : void
+Option(const std::string & name) : void
..
{static} +createDefault(const std::string & name, bool isEnabled) : Option *
-serialize<Archive>(Archive & archive, const unsigned int) : void
+toggle() : void
__
}
class "Chrysalis::Expression" as C_0016508219162996417863
class C_0016508219162996417863 {
-Expression() = default : void
+Expression(const std::string & name, const args::number * expression) : void
+~Expression() : void
..
#calculate() const : double
+isValid() const : bool
-serialize<Archive>(Archive & archive, const unsigned int) : void
__
-expression_ : const args::number *
}
class "Chrysalis::ScopedNamedElementsContainer<Chrysalis::Option>" as C_0012830258875211278697
class C_0012830258875211278697 {
__
}
class "Chrysalis::ScopedNamedElementsContainer<Chrysalis::Expression>" as C_0010948345871383058968
class C_0010948345871383058968 {
__
}
class "Chrysalis::BaseInstructionsContainer<T>" as C_0009832473294063137986
class C_0009832473294063137986 {
+BaseInstructionsContainer(OptionsContainer * options, ExpressionsContainer * expressions) : void
..
+execute() : void
+expressions() const : ExpressionsContainer *
+isValid() : bool
+options() const : OptionsContainer *
__
-expressions_ : ExpressionsContainer *
-options_ : OptionsContainer *
}
class "Chrysalis::BaseInstructionsContainer<Chrysalis::BaseInstruction>" as C_0006795609084469128677
class C_0006795609084469128677 {
__
}
class "Chrysalis::ConditionalInstructionsContainer" as C_0018268191441997889641
class C_0018268191441997889641 {
+ConditionalInstructionsContainer(const args::condition * condition, const Chrysalis::BaseInstructionsContainer<BaseInstruction> * positive, const Chrysalis::BaseInstructionsContainer<BaseInstruction> * negative) : void
+~ConditionalInstructionsContainer() : void
..
+execute() : void
+isValid() : bool
__
-condition_ : const args::condition *
-negative_ : const BaseInstructionsContainer<BaseInstruction> *
-positive_ : const BaseInstructionsContainer<BaseInstruction> *
}
class "Chrysalis::LineArgument" as C_0017869509652350831688
class C_0017869509652350831688 {
#LineArgument(const args::point * origin, const args::point * destination) : void
+LineArgument(const args::point * origin, const args::number * angle) : void
+~LineArgument() : void
..
+angle() const : const args::number *
+isValid() const : bool
+operator Line_2() const : CG::Line
+origin() const : const args::point *
__
#angle_ : const args::number *
#origin_ : const args::point *
}
class "Chrysalis::RayArgument" as C_0013359262213725603488
class C_0013359262213725603488 {
#RayArgument(const args::point * origin, const args::point * destination) : void
+RayArgument(const args::point * origin, const args::number * angle) : void
..
+operator Ray_2() const : CG::Ray
__
}
class "Chrysalis::VectorArgument" as C_0000793764540388360553
class C_0000793764540388360553 {
#VectorArgument(const args::point * origin, const args::point * destination) : void
+VectorArgument(const args::number * angle, const args::number * length) : void
+VectorArgument(const args::point * origin, const args::number * length) : void
+VectorArgument(const args::point * origin, const args::number * angle, const args::number * length) : void
+~VectorArgument() : void
..
+isValid() const : bool
+length() const : const args::number *
+operator Segment_2() const : CG::Segment
+operator Vector_2() const : CG::Vector
__
-length_ : const args::number *
}
class "Chrysalis::CompositiveContainer<Chrysalis::PatternPointArgument>" as C_0004440488307830833957
class C_0004440488307830833957 {
__
}
class "Chrysalis::CurveInstruction" as C_0012572252923833400704
class C_0012572252923833400704 {
+CurveInstruction(ProjectSpace * space, args::patterns * patterns, const args::vector * from, const args::vector * to, const Chrysalis::CompositiveContainer<PatternPointArgument> * points) : void
+~CurveInstruction() : void
..
+execute() : void
+isValid() : bool
__
-from_ : const args::vector *
-points_ : const args::container<PatternPointArgument> *
-to_ : const args::vector *
}
class "Chrysalis::DartInstruction" as C_0018166939826786108876
class C_0018166939826786108876 {
+DartInstruction(ProjectSpace * space, args::patterns * patterns, const PatternPointArgument * point, const args::number * intake, const args::vector * top, const args::vector * bottom) : void
+~DartInstruction() : void
..
+execute() : void
+isValid() : bool
__
-bottom_ : const args::vector *
-intake_ : const args::number *
-point_ : const PatternPointArgument *
-top_ : const args::vector *
}
class "Chrysalis::SegmentArgument" as C_0002481955606888948453
class C_0002481955606888948453 {
+SegmentArgument(const args::point * origin, const args::point * destination) : void
+~SegmentArgument() : void
..
+destination() const : const args::point *
__
-destination_ : const args::point *
}
class "Chrysalis::OptionalArgument<Chrysalis::BaseArgument<double>>" as C_0011702185653775348063
class C_0011702185653775348063 {
__
}
class "Chrysalis::EdgeDartInstruction" as C_0006235137811850856059
class C_0006235137811850856059 {
+EdgeDartInstruction(ProjectSpace * space, args::patterns * patterns, const args::segment * edge, const args::vector * dart, const args::number * leg1Intake, const Chrysalis::OptionalArgument<args::number> * leg2Intake) : void
+~EdgeDartInstruction() : void
..
+execute() : void
+isValid() : bool
__
-dart_ : const args::vector *
-edge_ : const args::segment *
-leg1Intake_ : const args::number *
-leg2Intake_ : const args::optional<args::number> *
}
class "Chrysalis::ExpressionArgument" as C_0018343206124105591300
class C_0018343206124105591300 {
+ExpressionArgument(const ExpressionsContainer * expressions, const args::name * name) : void
+~ExpressionArgument() : void
..
#calculate() const : double
+isValid() const : bool
__
-expressions_ : const ExpressionsContainer *
-name_ : const args::name *
}
class "Chrysalis::ExpressionInstruction" as C_0011969309407676350885
class C_0011969309407676350885 {
+ExpressionInstruction(ExpressionsContainer * expressions, args::expr * expression) : void
..
+execute() : void
+isValid() : bool
__
-expression_ : args::expr *
-expressions_ : ExpressionsContainer *
}
class "Chrysalis::FreePointInstruction" as C_0014778024850504188725
class C_0014778024850504188725 {
+FreePointInstruction(ProjectSpace * space, args::patterns * patterns, const args::name * pointName, const args::number * x, const args::number * y) : void
+~FreePointInstruction() : void
..
+execute() : void
+isValid() : bool
__
-pointName_ : const args::name *
-x_ : const args::number *
-y_ : const args::number *
}
note top of C_0014778024850504188725
Syntax samples:
 A (1, 1)
 "A 1" (1.0, 2)
 A (1 * 2 + 3, param("Circumference of something"))
end note
class "Chrysalis::CompositiveContainer<Chrysalis::Argument<std::string>>" as C_0009351507539470283885
class C_0009351507539470283885 {
__
}
class "Chrysalis::CompositiveContainer<Chrysalis::args::line>" as C_0016195743882894131013
class C_0016195743882894131013 {
__
}
class "Chrysalis::IntersectionPointInstruction" as C_0007970185002355349518
class C_0007970185002355349518 {
+IntersectionPointInstruction(ProjectSpace * space, args::patterns * patterns, const args::line * line, const Chrysalis::CompositiveContainer<args::name> * names, const Chrysalis::CompositiveContainer<args::line> * targets) : void
+~IntersectionPointInstruction() : void
..
+execute() : void
+isValid() : bool
__
-line_ : const args::line *
-names_ : const args::container<args::name> *
-targets_ : const args::container<args::line> *
}
abstract "Chrysalis::VectorFunctionArgument" as C_0014380000036712777437
abstract C_0014380000036712777437 {
#VectorFunctionArgument(const args::point * from, const args::point * to) : void
+~VectorFunctionArgument() : void
..
#calculate() const : double
{abstract} #evaluate(const CG::Point & from, const CG::Point & to) const = 0 : double
+isValid() const : bool
-serialize<Archive>(Archive & archive, const unsigned int) : void
__
#from_ : const args::point *
#to_ : const args::point *
}
note top of C_0014380000036712777437
Syntax samples:
 (A -> B).length
 (A ("Pattern 1") -> "A 1").angle
end note
class "Chrysalis::VectorFunctionArgument::Length" as C_0009825877545976859219
class C_0009825877545976859219 {
+Length(const args::point * from, const args::point * to) : void
#evaluate(const CG::Point & from, const CG::Point & to) const : double
__
}
class "Chrysalis::VectorFunctionArgument::Angle" as C_0003998340548139129738
class C_0003998340548139129738 {
+Angle(const args::point * from, const args::point * to) : void
#evaluate(const CG::Point & from, const CG::Point & to) const : double
__
}
class "Chrysalis::OptionalArgument<Chrysalis::args::vector>" as C_0000683932820629931208
class C_0000683932820629931208 {
__
}
class "Chrysalis::MovePointInstruction" as C_0017478559692109379194
class C_0017478559692109379194 {
+MovePointInstruction(ProjectSpace * space, args::patterns * patterns, const PatternPointArgument * point, const args::vector * vector1, const Chrysalis::OptionalArgument<args::vector> * vector2) : void
+~MovePointInstruction() : void
..
+execute() : void
+isValid() : bool
__
-point_ : const PatternPointArgument *
-vector1_ : const args::vector *
-vector2_ : const args::optional<args::vector> *
}
class "Chrysalis::OriginPointArgument" as C_0017376794233664256424
class C_0017376794233664256424 {
+clone() const : BasePointArgument *
+get() const : const Point *
+name() const : const args::name *
-serialize<Archive>(Archive & archive, const unsigned int) : void
__
}
class "Chrysalis::Parameter" as C_0012811662139665247956
class C_0012811662139665247956 {
-Parameter() = default : void
+Parameter(const std::string & name) : void
..
{static} +create(const std::string & name, double value) : Parameter *
{static} +createDefault(const std::string & name, double defaultValue) : Parameter *
+getDefaultValue() const : double
+getValue() const : double
+hasDefaultValue() const : bool
+hasValue() const : bool
+isValid() const : bool
-serialize<Archive>(Archive & archive, const unsigned int) : void
+setDefaultValue(double defaultValue) : void
+setValue(double value) : void
__
-defaultValue_ : boost::optional<double>
-value_ : boost::optional<double>
}
class "Chrysalis::ParameterArgument" as C_0016547166278433300083
class C_0016547166278433300083 {
+ParameterArgument(Parameter * parameter) : void
..
#calculate() const : double
+isValid() const : bool
__
-parameter_ : Parameter *
}
class "Chrysalis::Pattern" as C_0005824426893526781565
class C_0005824426893526781565 {
-Pattern() = default : void
+Pattern(const std::string & name, PatternSpace * space) : void
+~Pattern() : void
..
{static} +create(const std::string & name) : Pattern *
+getSpace() const : PatternSpace *
-serialize<Archive>(Archive & archive, const unsigned int) : void
__
-space_ : PatternSpace *
}
class "Chrysalis::BaseInstructionsContainer<Chrysalis::BasePatternInstruction>" as C_0006776945885242230637
class C_0006776945885242230637 {
__
}
class "Chrysalis::PatternInstructionsContainer" as C_0003800391587746138531
class C_0003800391587746138531 {
+PatternInstructionsContainer(OptionsContainer * options, ExpressionsContainer * expressions, args::patterns * patterns) : void
+~PatternInstructionsContainer() : void
..
+isValid() : bool
__
-patterns_ : args::patterns *
}
class "Chrysalis::NamedElementsContainer<Chrysalis::Pattern>" as C_0000137605349055924040
class C_0000137605349055924040 {
__
}
class "Chrysalis::NamedElementsContainer<Chrysalis::Parameter>" as C_0009799515597078618207
class C_0009799515597078618207 {
__
}
class "Chrysalis::Project" as C_0008495545694619727706
class C_0008495545694619727706 {
+Project(std::string name, ProjectSpace * space, PatternsContainer * patterns, ParametersContainer * parameters, OptionsContainer * options, ExpressionsContainer * expressions, InstructionsContainer * instructions) : void
+~Project() : void
..
{static} +create() : Project *
{static} +create(const std::string & name) : Project *
+getExpressions() const : ExpressionsContainer *
+getInstructions() const : InstructionsContainer *
+getName() : std::string
+getOptions() const : OptionsContainer *
+getParameters() const : ParametersContainer *
+getPatterns() const : PatternsContainer *
+getSpace() const : ProjectSpace *
{static} +read(const std::string & filePath) : Project *
+setName(const std::string & name) : void
{static} +write(const std::string & filePath, Project * project) : void
__
{static} +PROJECT_FILE_SUFFIX : const char *const
{static} +PROJECT_NAME_FILTER : const char *const
-expressions_ : ExpressionsContainer *
-instructions_ : InstructionsContainer *
-name_ : std::string
-options_ : OptionsContainer *
-parameters_ : ParametersContainer *
-patterns_ : PatternsContainer *
-space_ : ProjectSpace *
}
class "Chrysalis::OptionalArgument<Chrysalis::args::line>" as C_0017781249159351516039
class C_0017781249159351516039 {
__
}
class "Chrysalis::RelativePointInstruction" as C_0004936461079814340647
class C_0004936461079814340647 {
+RelativePointInstruction(ProjectSpace * space, args::patterns * selectedPatterns, const args::name * name, const args::vector * vector) : void
+RelativePointInstruction(ProjectSpace * space, args::patterns * selectedPatterns, const args::name * name, const args::vector * vector, const Chrysalis::OptionalArgument<args::line> * line) : void
+~RelativePointInstruction() : void
..
+execute() : void
+isValid() : bool
__
-line_ : const args::optional<args::line> *
-name_ : const args::name *
-vector_ : const args::vector *
}
note top of C_0004936461079814340647
Syntax samples:
 A -> B 45 10
 "A 1" ("Back") -> "B 2" 1 / 2 * 3 param("Short alias")
 A -> B (1 * 2 * 3 * 4) (1 / 2 / param("Circumference of something"))
end note
class "Chrysalis::UnfoldEdgeDartInstruction" as C_0013671800093242345687
class C_0013671800093242345687 {
+UnfoldEdgeDartInstruction(ProjectSpace * space, args::patterns * patterns, const args::segment * edge, const args::segment * leg, const args::number * intake) : void
+~UnfoldEdgeDartInstruction() : void
..
+execute() : void
+isValid() : bool
__
-edge_ : const args::segment *
-intake_ : const args::number *
-leg_ : const args::segment *
}
C_0007088239576659478452 *-- C_0004642218715827055853 : -points_
C_0007088239576659478452 *-- C_0004642218715827055853 : -curves_
C_0007088239576659478452 *-- C_0018156493150910561312 : -curves_
C_0008219096566301061159 <|-- C_0005688742674269325206
C_0005688742674269325206 <|-- C_0004278681173875969640
C_0012923087791918137441 --> C_0004642218715827055853 : -points_
C_0005941615759101781899 <|-- C_0012923087791918137441
C_0011346594566273340276 ..|> C_0004278681173875969640
C_0006410388496936549037 --> C_0004642218715827055853 : -lastPoint_
C_0006410388496936549037 *-- C_0012923087791918137441 : -outline_
C_0006410388496936549037 *-- C_0011346594566273340276 : -outline_
C_0006410388496936549037 *-- C_0004278681173875969640 : -outline_
C_0006410388496936549037 --> C_0004642218715827055853 : -points_
C_0001047017953527499081 ..|> C_0008219096566301061159
C_0001047017953527499081 <|-- C_0014927223858222449226
C_0012361199867370331426 --> C_0007088239576659478452 : #space_
C_0012361199867370331426 *-- C_0014927223858222449226 : #patterns_
C_0002610049402694154836 <|-- C_0012361199867370331426
C_0004566211642871539975 <|-- C_0000892009465423237500
C_0004566211642871539975 <|-- C_0006837253732787679527
C_0001471877624587876994 ..|> C_0004566211642871539975
C_0014304995755461162082 ..|> C_0006837253732787679527
C_0001365093100257756951 *-- C_0001471877624587876994 : #operand1_
C_0001365093100257756951 *-- C_0004566211642871539975 : #operand1_
C_0001365093100257756951 *-- C_0001471877624587876994 : #operand2_
C_0001365093100257756951 *-- C_0004566211642871539975 : #operand2_
C_0014304995755461162082 <|-- C_0001365093100257756951
C_0014087117419452374380 --+ C_0001365093100257756951
C_0001365093100257756951 <|-- C_0014087117419452374380
C_0014531108691559918537 --+ C_0001365093100257756951
C_0001365093100257756951 <|-- C_0014531108691559918537
C_0008794678997563482301 --+ C_0001365093100257756951
C_0001365093100257756951 <|-- C_0008794678997563482301
C_0011584929275101058424 --+ C_0001365093100257756951
C_0001365093100257756951 <|-- C_0011584929275101058424
C_0006793010056395472383 --+ C_0001365093100257756951
C_0001365093100257756951 <|-- C_0006793010056395472383
C_0006785425625185586705 --+ C_0001365093100257756951
C_0001365093100257756951 <|-- C_0006785425625185586705
C_0016949743096485278048 ..|> C_0000892009465423237500
C_0010060974190162873338 *-- C_0016949743096485278048 : -name_
C_0010060974190162873338 *-- C_0000892009465423237500 : -name_
C_0010060974190162873338 *-- C_0014927223858222449226 : -patterns_
C_0013206232820539036909 <|-- C_0010060974190162873338
C_0014956221374281501729 --> C_0016949743096485278048 : -outlineName_
C_0014956221374281501729 --> C_0000892009465423237500 : -outlineName_
C_0014956221374281501729 --> C_0010060974190162873338 : -point_
C_0012361199867370331426 <|-- C_0014956221374281501729
C_0004214281036792883737 ..|> C_0006837253732787679527
C_0011503483743592691279 --> C_0001471877624587876994 : #value1_
C_0011503483743592691279 --> C_0004566211642871539975 : #value1_
C_0011503483743592691279 --> C_0001471877624587876994 : #value2_
C_0011503483743592691279 --> C_0004566211642871539975 : #value2_
C_0004214281036792883737 <|-- C_0011503483743592691279
C_0003507979535890577519 --+ C_0011503483743592691279
C_0011503483743592691279 <|-- C_0003507979535890577519
C_0007006118626761113406 --+ C_0011503483743592691279
C_0011503483743592691279 <|-- C_0007006118626761113406
C_0011193748446084086489 --+ C_0011503483743592691279
C_0011503483743592691279 <|-- C_0011193748446084086489
C_0003326406460771094547 --+ C_0011503483743592691279
C_0011503483743592691279 <|-- C_0003326406460771094547
C_0008434583589805453528 --+ C_0011503483743592691279
C_0011503483743592691279 <|-- C_0008434583589805453528
C_0003130365896066878896 --+ C_0011503483743592691279
C_0011503483743592691279 <|-- C_0003130365896066878896
C_0011019598324065455417 ..|> C_0004566211642871539975
C_0015836046502909272684 --> C_0011019598324065455417 : -condition_
C_0015836046502909272684 --> C_0004566211642871539975 : -condition_
C_0015836046502909272684 --> C_0001471877624587876994 : -positive_
C_0015836046502909272684 --> C_0004566211642871539975 : -positive_
C_0015836046502909272684 --> C_0001471877624587876994 : -negative_
C_0015836046502909272684 --> C_0004566211642871539975 : -negative_
C_0014304995755461162082 <|-- C_0015836046502909272684
C_0004278681173875969640 <|-- C_0013689811739584759896
C_0013902376426351804888 ..|> C_0000892009465423237500
C_0005941615759101781899 <|-- C_0018272832358235078784
C_0013902376426351804888 <|-- C_0018272832358235078784
C_0016508219162996417863 --> C_0001471877624587876994 : -expression_
C_0016508219162996417863 --> C_0004566211642871539975 : -expression_
C_0005941615759101781899 <|-- C_0016508219162996417863
C_0014304995755461162082 <|-- C_0016508219162996417863
C_0012830258875211278697 ..|> C_0013689811739584759896
C_0010948345871383058968 ..|> C_0013689811739584759896
C_0009832473294063137986 *-- C_0018272832358235078784 : -options_
C_0009832473294063137986 *-- C_0012830258875211278697 : -options_
C_0009832473294063137986 *-- C_0013689811739584759896 : -options_
C_0009832473294063137986 *-- C_0016508219162996417863 : -expressions_
C_0009832473294063137986 *-- C_0010948345871383058968 : -expressions_
C_0009832473294063137986 *-- C_0013689811739584759896 : -expressions_
C_0002610049402694154836 <|-- C_0009832473294063137986
C_0005688742674269325206 <|-- C_0009832473294063137986
C_0006795609084469128677 ..|> C_0009832473294063137986
C_0018268191441997889641 --> C_0011019598324065455417 : -condition_
C_0018268191441997889641 --> C_0004566211642871539975 : -condition_
C_0018268191441997889641 --> C_0002610049402694154836 : -positive_
C_0018268191441997889641 --> C_0006795609084469128677 : -positive_
C_0018268191441997889641 --> C_0009832473294063137986 : -positive_
C_0018268191441997889641 --> C_0002610049402694154836 : -negative_
C_0018268191441997889641 --> C_0006795609084469128677 : -negative_
C_0018268191441997889641 --> C_0009832473294063137986 : -negative_
C_0002610049402694154836 <|-- C_0018268191441997889641
C_0017869509652350831688 *-- C_0013206232820539036909 : #origin_
C_0017869509652350831688 *-- C_0001471877624587876994 : #angle_
C_0017869509652350831688 *-- C_0004566211642871539975 : #angle_
C_0017869509652350831688 <|-- C_0013359262213725603488
C_0000793764540388360553 *-- C_0001471877624587876994 : -length_
C_0000793764540388360553 *-- C_0004566211642871539975 : -length_
C_0013359262213725603488 <|-- C_0000793764540388360553
C_0004440488307830833957 ..|> C_0005688742674269325206
C_0012572252923833400704 *-- C_0000793764540388360553 : -from_
C_0012572252923833400704 *-- C_0000793764540388360553 : -to_
C_0012572252923833400704 *-- C_0010060974190162873338 : -points_
C_0012572252923833400704 *-- C_0004440488307830833957 : -points_
C_0012361199867370331426 <|-- C_0012572252923833400704
C_0018166939826786108876 *-- C_0010060974190162873338 : -point_
C_0018166939826786108876 *-- C_0001471877624587876994 : -intake_
C_0018166939826786108876 *-- C_0004566211642871539975 : -intake_
C_0018166939826786108876 *-- C_0000793764540388360553 : -top_
C_0018166939826786108876 *-- C_0000793764540388360553 : -bottom_
C_0012361199867370331426 <|-- C_0018166939826786108876
C_0002481955606888948453 *-- C_0013206232820539036909 : -destination_
C_0000793764540388360553 <|-- C_0002481955606888948453
C_0011702185653775348063 ..|> C_0007143007386227679224
C_0006235137811850856059 *-- C_0002481955606888948453 : -edge_
C_0006235137811850856059 *-- C_0000793764540388360553 : -dart_
C_0006235137811850856059 *-- C_0001471877624587876994 : -leg1Intake_
C_0006235137811850856059 *-- C_0004566211642871539975 : -leg1Intake_
C_0006235137811850856059 *-- C_0001471877624587876994 : -leg2Intake_
C_0006235137811850856059 *-- C_0011702185653775348063 : -leg2Intake_
C_0006235137811850856059 *-- C_0004566211642871539975 : -leg2Intake_
C_0012361199867370331426 <|-- C_0006235137811850856059
C_0018343206124105591300 --> C_0016508219162996417863 : -expressions_
C_0018343206124105591300 --> C_0010948345871383058968 : -expressions_
C_0018343206124105591300 --> C_0013689811739584759896 : -expressions_
C_0018343206124105591300 *-- C_0016949743096485278048 : -name_
C_0018343206124105591300 *-- C_0000892009465423237500 : -name_
C_0014304995755461162082 <|-- C_0018343206124105591300
C_0011969309407676350885 --> C_0016508219162996417863 : -expressions_
C_0011969309407676350885 --> C_0010948345871383058968 : -expressions_
C_0011969309407676350885 --> C_0013689811739584759896 : -expressions_
C_0011969309407676350885 --> C_0016508219162996417863 : -expression_
C_0002610049402694154836 <|-- C_0011969309407676350885
C_0014778024850504188725 --> C_0016949743096485278048 : -pointName_
C_0014778024850504188725 --> C_0000892009465423237500 : -pointName_
C_0014778024850504188725 --> C_0001471877624587876994 : -x_
C_0014778024850504188725 --> C_0004566211642871539975 : -x_
C_0014778024850504188725 --> C_0001471877624587876994 : -y_
C_0014778024850504188725 --> C_0004566211642871539975 : -y_
C_0012361199867370331426 <|-- C_0014778024850504188725
C_0009351507539470283885 ..|> C_0005688742674269325206
C_0016195743882894131013 ..|> C_0005688742674269325206
C_0007970185002355349518 --> C_0017869509652350831688 : -line_
C_0007970185002355349518 --> C_0016949743096485278048 : -names_
C_0007970185002355349518 --> C_0009351507539470283885 : -names_
C_0007970185002355349518 --> C_0000892009465423237500 : -names_
C_0007970185002355349518 --> C_0016195743882894131013 : -targets_
C_0007970185002355349518 --> C_0017869509652350831688 : -targets_
C_0012361199867370331426 <|-- C_0007970185002355349518
C_0014380000036712777437 *-- C_0013206232820539036909 : #from_
C_0014380000036712777437 *-- C_0013206232820539036909 : #to_
C_0014304995755461162082 <|-- C_0014380000036712777437
C_0009825877545976859219 --+ C_0014380000036712777437
C_0014380000036712777437 <|-- C_0009825877545976859219
C_0003998340548139129738 --+ C_0014380000036712777437
C_0014380000036712777437 <|-- C_0003998340548139129738
C_0000683932820629931208 ..|> C_0007143007386227679224
C_0017478559692109379194 --> C_0010060974190162873338 : -point_
C_0017478559692109379194 --> C_0000793764540388360553 : -vector1_
C_0017478559692109379194 --> C_0000683932820629931208 : -vector2_
C_0017478559692109379194 --> C_0000793764540388360553 : -vector2_
C_0012361199867370331426 <|-- C_0017478559692109379194
C_0013206232820539036909 <|-- C_0017376794233664256424
C_0005941615759101781899 <|-- C_0012811662139665247956
C_0016547166278433300083 --> C_0012811662139665247956 : -parameter_
C_0014304995755461162082 <|-- C_0016547166278433300083
C_0005824426893526781565 *-- C_0006410388496936549037 : -space_
C_0005941615759101781899 <|-- C_0005824426893526781565
C_0006776945885242230637 ..|> C_0009832473294063137986
C_0003800391587746138531 *-- C_0014927223858222449226 : -patterns_
C_0006776945885242230637 <|-- C_0003800391587746138531
C_0000137605349055924040 ..|> C_0004278681173875969640
C_0009799515597078618207 ..|> C_0004278681173875969640
C_0008495545694619727706 *-- C_0007088239576659478452 : -space_
C_0008495545694619727706 *-- C_0018272832358235078784 : -options_
C_0008495545694619727706 *-- C_0012830258875211278697 : -options_
C_0008495545694619727706 *-- C_0013689811739584759896 : -options_
C_0008495545694619727706 *-- C_0005824426893526781565 : -patterns_
C_0008495545694619727706 *-- C_0000137605349055924040 : -patterns_
C_0008495545694619727706 *-- C_0004278681173875969640 : -patterns_
C_0008495545694619727706 *-- C_0012811662139665247956 : -parameters_
C_0008495545694619727706 *-- C_0009799515597078618207 : -parameters_
C_0008495545694619727706 *-- C_0004278681173875969640 : -parameters_
C_0008495545694619727706 *-- C_0016508219162996417863 : -expressions_
C_0008495545694619727706 *-- C_0010948345871383058968 : -expressions_
C_0008495545694619727706 *-- C_0013689811739584759896 : -expressions_
C_0008495545694619727706 *-- C_0002610049402694154836 : -instructions_
C_0008495545694619727706 *-- C_0006795609084469128677 : -instructions_
C_0008495545694619727706 *-- C_0009832473294063137986 : -instructions_
C_0017781249159351516039 ..|> C_0007143007386227679224
C_0004936461079814340647 --> C_0016949743096485278048 : -name_
C_0004936461079814340647 --> C_0000892009465423237500 : -name_
C_0004936461079814340647 --> C_0000793764540388360553 : -vector_
C_0004936461079814340647 --> C_0017781249159351516039 : -line_
C_0004936461079814340647 --> C_0017869509652350831688 : -line_
C_0012361199867370331426 <|-- C_0004936461079814340647
C_0013671800093242345687 --> C_0002481955606888948453 : -edge_
C_0013671800093242345687 --> C_0002481955606888948453 : -leg_
C_0013671800093242345687 --> C_0001471877624587876994 : -intake_
C_0013671800093242345687 --> C_0004566211642871539975 : -intake_
C_0012361199867370331426 <|-- C_0013671800093242345687
skinparam class {
  BackgroundColor #EAFAF1
  BorderColor #1E8449
  FontColor #0B5345
  AttributeFontColor #1E8449
  StereotypeFontColor #1E8449
  FontStyle Bold
}

skinparam class<<Base>> {
  BackgroundColor #F2F3F4
  BorderColor #2C3E50
  BorderThickness 3
  FontSize 16
  FontColor #2C3E50
  AttributeFontColor #566573
  StereotypeFontColor #808B96
  FontStyle Italic
}

skinparam class<<Function>> {
  BackgroundColor #E8F8F5
  BorderColor #0E6655
  BorderThickness 3
  FontSize 16
  FontColor #0E6655
  AttributeFontColor #117A65
  StereotypeFontColor #148F77
  FontStyle Italic
}

skinparam class<<Argument>> {
  BackgroundColor #FDF2E9
  BorderColor #E59866
  BorderThickness 3
  FontSize 16
  FontColor #784212
  AttributeFontColor #A04000
  StereotypeFontColor #CA6F1E
  FontStyle Italic
}

skinparam class<<Instruction>> {
  BackgroundColor #EAF2FF
  BorderColor #2E86C1
  BorderThickness 3
  FontSize 16
  FontColor #1A5276
  AttributeFontColor #2471A3
  StereotypeFontColor #5DADE2
  FontStyle Italic
}

skinparam class<<Container>> {
  BackgroundColor #E8F7FD
  BorderColor #0096B7
  BorderThickness 3
  FontSize 16
  FontColor #023E52
  AttributeFontColor #0277A0
  StereotypeFontColor #0096B7
  FontStyle Italic
}


 class C_0005941615759101781899 <<Base>> 







 class C_0002610049402694154836 <<Base>> 

 class C_0008219096566301061159 <<Container>> 

 class C_0005688742674269325206 <<Container>> 

 class C_0004566211642871539975 <<Base>> 

 class C_0004278681173875969640 <<Container>> 



 class C_0011346594566273340276 <<Container>> 



 class C_0001047017953527499081 <<Container>> 

 class C_0014927223858222449226 <<Container>> 

 class C_0012361199867370331426 <<Base>> 

 class C_0000892009465423237500 <<Argument>> 

 class C_0013206232820539036909 <<Base>> 

 class C_0006837253732787679527 <<Base>> 

 class C_0001471877624587876994 <<Base>> 

 class C_0014304995755461162082 <<Base>> 

 class C_0001365093100257756951 <<Argument>> 

 class C_0014087117419452374380 <<Argument>> 

 class C_0014531108691559918537 <<Argument>> 

 class C_0008794678997563482301 <<Argument>> 

 class C_0011584929275101058424 <<Argument>> 

 class C_0006793010056395472383 <<Argument>> 

 class C_0006785425625185586705 <<Argument>> 

 class C_0007143007386227679224 <<Argument>> 

 class C_0016949743096485278048 <<Argument>> 

 class C_0010060974190162873338 <<Argument>> 

 class C_0014956221374281501729 <<Instruction>> 

 class C_0004214281036792883737 <<Base>> 

 class C_0011503483743592691279 <<Argument>> 

 class C_0003507979535890577519 <<Argument>> 

 class C_0007006118626761113406 <<Argument>> 

 class C_0011193748446084086489 <<Argument>> 

 class C_0003326406460771094547 <<Argument>> 

 class C_0008434583589805453528 <<Argument>> 

 class C_0003130365896066878896 <<Argument>> 

 class C_0011019598324065455417 <<Base>> 

 class C_0015836046502909272684 <<Argument>> 

 class C_0013689811739584759896 <<Container>> 

 class C_0013902376426351804888 <<Argument>> 





 class C_0012830258875211278697 <<Container>> 

 class C_0010948345871383058968 <<Container>> 

 class C_0009832473294063137986 <<Base>> 

 class C_0006795609084469128677 <<Base>> 

 class C_0018268191441997889641 <<Container>> 

 class C_0017869509652350831688 <<Argument>> 

 class C_0013359262213725603488 <<Argument>> 

 class C_0000793764540388360553 <<Argument>> 

 class C_0004440488307830833957 <<Container>> 

 class C_0012572252923833400704 <<Instruction>> 

 class C_0018166939826786108876 <<Instruction>> 

 class C_0002481955606888948453 <<Argument>> 

 class C_0011702185653775348063 <<Argument>> 

 class C_0006235137811850856059 <<Instruction>> 

 class C_0018343206124105591300 <<Argument>> 

 class C_0011969309407676350885 <<Instruction>> 

 class C_0014778024850504188725 <<Instruction>> 

 class C_0009351507539470283885 <<Container>> 

 class C_0016195743882894131013 <<Container>> 

 class C_0007970185002355349518 <<Instruction>> 

 class C_0014380000036712777437 <<Argument>> 

 class C_0009825877545976859219 <<Argument>> 

 class C_0003998340548139129738 <<Argument>> 

 class C_0000683932820629931208 <<Argument>> 

 class C_0017478559692109379194 <<Instruction>> 

 class C_0017376794233664256424 <<Argument>> 



 class C_0016547166278433300083 <<Argument>> 



 class C_0006776945885242230637 <<Base>> 

 class C_0003800391587746138531 <<Container>> 

 class C_0000137605349055924040 <<Container>> 

 class C_0009799515597078618207 <<Container>> 



 class C_0017781249159351516039 <<Argument>> 

 class C_0004936461079814340647 <<Instruction>> 

 class C_0013671800093242345687 <<Instruction>> 



'Generated with clang-uml, version 0.6.2
'LLVM version clang version 20.1.7 (https://github.com/llvm/llvm-project.git 6146a88f60492b520a36f8f8f3231e15f3cc6082)
@enduml
