@startuml
class "Chrysalis::Area" as C_0017448836424981341256
class C_0017448836424981341256 {
+Area() : void
+Area(float x, float y, float width, float height) : void
..
+height() const : const float &
+offset(float deltaX, float deltaY) : void
+scale(float scaleFactor) : void
+setSize(float width, float height) : void
+width() const : const float &
+x() const : const float &
+y() const : const float &
__
-height_ : float
-width_ : float
-x_ : float
-y_ : float
}
class "Chrysalis::BaseOpenGLProgram" as C_0009014904075807390969
class C_0009014904075807390969 {
#BaseOpenGLProgram(const char * vertexShader, const char * fragmentShader) : void
+~BaseOpenGLProgram() : void
..
+bind() const : void
+initialize() : void
{static} -prepareShader(const char * shaderCode, GLenum shaderType) : GLint
{static} +release() : void
#setUniformValue(const char * name, GLint value) const : void
#setUniformValue(const char * name, GLfloat value) const : void
#setUniformValue(const char * name, const glm::mat4x4 & value) const : void
#setUniformValue(const char * name, GLfloat x, GLfloat y, GLfloat z, GLfloat w) const : void
__
-fragmentShader_ : const char *
-program_ : GLint
-vertexShader_ : const char *
}
class "Chrysalis::BaseObserver<T>" as C_0014592205157828846112
class C_0014592205157828846112 {
#BaseObserver() = default : void
#~BaseObserver() = default : void
..
#observe(const BaseObservable<T> * observable) : void
__
}
class "Chrysalis::BaseObserver<Chrysalis::PointObserver>" as C_0011714416178498922510
class C_0011714416178498922510 {
__
}
abstract "Chrysalis::PointObserver" as C_0006271128212356082639
abstract C_0006271128212356082639 {
#PointObserver() = default : void
..
{abstract} +pointMoved(const Point * point) = 0 : void
__
}
class "Chrysalis::Point" as C_0004642218715827055853
class C_0004642218715827055853 {
+Point(const CG::Point & point) : void
+Point(double x, double y) : void
..
+operator+(const CG::Vector & vector) const : CG::Point
+operator-(const Point & other) const : CG::Vector
..
+move(CG::Point point) : void
+operator Point_2() const : const CG::CPoint
+operator const CGAL::Point_2<CGAL::Epick> &() const : const CG::Point &
+x() const : const double &
+y() const : const double &
__
-point_ : CG::Point
}
class "Chrysalis::Vertex2f" as C_0014045523936343269615
class C_0014045523936343269615 {
+Vertex2f(float x, float y) : void
+Vertex2f(const Point & point) : void
..
{static} +layout() : std::vector<std::pair<int,void *>>
+move(const Point & point) : void
+x() const : const float &
+y() const : const float &
__
-x_ : float
-y_ : float
}
abstract "Chrysalis::BaseRendererData<V>" as C_0010648050014975774765
abstract C_0010648050014975774765 {
#BaseRendererData() = default : void
+~BaseRendererData() = default : void
..
+shouldUpload() : bool
{abstract} +size() = 0 : size_t
+updateVBO() : void
{abstract} +vbo() = 0 : std::vector<V>
__
-shouldUpload_ : bool
}
abstract "Chrysalis::BaseRenderer<D>" as C_0011449526761968468087
abstract C_0011449526761968468087 {
#BaseRenderer(D * data) : void
#~BaseRenderer() : void
..
{abstract} +draw() = 0 : void
+initialize() : void
+render() : void
+upload() : void
__
#data_ : D *
-vao_ : GLuint
-vbo_ : GLuint
}
class "Chrysalis::BaseRendererData<Chrysalis::Vertex2f>" as C_0003814330884215016651
class C_0003814330884215016651 {
__
}
class "Chrysalis::CartesianRendererData" as C_0011935714076265489658
class C_0011935714076265489658 {
+buildGrid(const Area & area, float gridSize) : void
+size() : size_t
+vbo() : std::vector<Vertex2f>
__
-data_ : std::vector<Vertex2f>
}
class "Chrysalis::MainOpenGLProgram" as C_0008404019008873523889
class C_0008404019008873523889 {
+MainOpenGLProgram() : void
..
+setColor(float r, float g, float b, float a) const : void
+setPointRadius(float radius) const : void
+setProjection(const glm::mat4x4 & projection) const : void
__
}
class "Chrysalis::BaseRenderer<Chrysalis::CartesianRendererData>" as C_0009985944204983126988
class C_0009985944204983126988 {
__
}
class "Chrysalis::CartesianRenderer" as C_0012069508297492912490
class C_0012069508297492912490 {
+CartesianRenderer(MainOpenGLProgram * program, CartesianRendererData * data) : void
..
+changeArea(const Area & area) const : void
+draw() : void
__
-gridSize_ : float
-program_ : MainOpenGLProgram *
}
class "Chrysalis::Vertex3f" as C_0014044642128017633618
class C_0014044642128017633618 {
+Vertex3f(const Point & point) : void
+Vertex3f(const Point & point, float attribute) : void
+Vertex3f(float x, float y) : void
+Vertex3f(float x, float y, float attribute) : void
..
+attribute(float value) : void
+attribute() const : const float &
{static} +layout() : std::vector<std::pair<int,void *>>
__
-attribute_ : float
}
class "Chrysalis::BaseRendererData<Chrysalis::Vertex3f>" as C_0003071611879058204012
class C_0003071611879058204012 {
__
}
class "Chrysalis::CursorRendererData" as C_0010368778014850136780
class C_0010368778014850136780 {
+projectCursor(float x, float y) : void
+size() : size_t
+vbo() : std::vector<Vertex3f>
__
-data_ : std::vector<Vertex3f>
}
abstract "Chrysalis::BaseAnimatedRenderer<D>" as C_0006005639932984129856
abstract C_0006005639932984129856 {
#BaseAnimatedRenderer(D * data) : void
..
+animate() : bool
#complete() : void
{abstract} #prepareNextFrame(int64_t startTime, int64_t previousFrameTime, int64_t currentFrameTime) = 0 : void
__
-isCompleted_ : bool
-startTime_ : int64_t
-time_ : int64_t
}
class "Chrysalis::BaseAnimatedRenderer<Chrysalis::CursorRendererData>" as C_0014979996669646431041
class C_0014979996669646431041 {
__
}
class "Chrysalis::CursorRenderer" as C_0014720307744216466084
class C_0014720307744216466084 {
+CursorRenderer(MainOpenGLProgram * program, CursorRendererData * data) : void
..
+displayCursor(float x, float y) : void
+draw() : void
+hideCursor() : void
#prepareNextFrame(int64_t startTime, int64_t previousFrameTime, int64_t currentFrameTime) : void
__
-displayCursor_ : bool
-opacity_ : float
-program_ : MainOpenGLProgram *
}
class "Chrysalis::Layout" as C_0012203734606017441483
class C_0012203734606017441483 {
+Layout(size_t offset, size_t count) : void
..
+count() const : const size_t &
+offset() const : const size_t &
__
-count_ : const size_t
-offset_ : const size_t
}
class "Chrysalis::PatternShapeRendererData" as C_0011694023645327839877
class C_0011694023645327839877 {
+size() : size_t
+vbo() : std::vector<Vertex2f>
__
}
class "Chrysalis::BaseRenderer<Chrysalis::PatternShapeRendererData>" as C_0015376512757975965057
class C_0015376512757975965057 {
__
}
class "Chrysalis::PatternShapeRenderer" as C_0015064054511240045445
class C_0015064054511240045445 {
+PatternShapeRenderer(PatternShapeRendererData * data) : void
..
+draw() : void
+scaleChanged(float scale) : void
__
}
class "Chrysalis::Curve" as C_0018156493150910561312
class C_0018156493150910561312 {
+Curve(CG::Point handleFrom, CG::Point handleTo, const std::vector<CG::Point> & points) : void
..
+curvePoints(double distance) const : std::vector<CG::Point>
__
-spline_ : tinyspline::BSpline
}
abstract "Chrysalis::PatternSpaceObserver" as C_0014124802283436931215
abstract C_0014124802283436931215 {
#PatternSpaceObserver() = default : void
#~PatternSpaceObserver() constexpr = default : void
..
{abstract} +curveAdded(const Curve * curve) = 0 : void
{abstract} +pointAdded(const Point * point) = 0 : void
{abstract} +relativePointConnectionAdded(const Point * from, const Point * to) = 0 : void
{abstract} +relativePointConnectionRemoved(const Point * from, const Point * to) = 0 : void
__
}
class "Chrysalis::PatternSpaceRendererData" as C_0011260122464657857622
class C_0011260122464657857622 {
+arrowsLayout() const : std::vector<Layout>
{static} -buildArrow(const CG::Point & pointFrom, const CG::Point & pointTo) : Arrow
+curveAdded(const Curve * curve) : void
{static} -intersectionPoint(const CG::Point & pointFrom, const CG::Point & pointTo) : CG::Point
{static} -length(const CG::Point & pointFrom, const CG::Point & pointTo) : float
+linesLayout() const : std::vector<Layout>
+pointAdded(const Point * point) : void
+pointAtPosition(float x, float y) const : const Point *
+pointMoved(const Point * point) : void
+pointsLayout() const : Layout
+relativePointConnectionAdded(const Point * from, const Point * to) : void
+relativePointConnectionRemoved(const Point * from, const Point * to) : void
+size() : size_t
+vbo() : std::vector<Vertex3f>
__
{static} +POINT_RADIUS : const float
-arrows_ : std::vector<Vertex3f>
-connectionsMapFrom_ : std::unordered_map<const Point *,std::unordered_map<const Point *,int>>
-connectionsMapTo_ : std::unordered_map<const Point *,std::unordered_map<const Point *,int>>
-lines_ : std::vector<std::vector<Vertex3f>>
-pointIndices_ : std::unordered_map<const Point *,int>
-points_ : std::vector<Vertex3f>
}
class "Chrysalis::PatternSpaceRendererData::Arrow" as C_0012563006101612362629
class C_0012563006101612362629 {
__
+baseBegin : CG::Point
+baseEnd : CG::Point
+leftWing : CG::Point
+rightWing : CG::Point
}
class "Chrysalis::BaseRenderer<Chrysalis::PatternSpaceRendererData>" as C_0000794775527725307768
class C_0000794775527725307768 {
__
}
class "Chrysalis::PatternSpaceRenderer" as C_0008349615279724093078
class C_0008349615279724093078 {
+PatternSpaceRenderer(MainOpenGLProgram * program, PatternSpaceRendererData * rendererData) : void
..
+draw() : void
+pointAtPosition(float x, float y) const : const Point *
+scaleChanged(float scale) : void
__
-pointRadius_ : float
-program_ : MainOpenGLProgram *
}
class "Chrysalis::PatternRenderer" as C_0010886489269060501830
class C_0010886489269060501830 {
+PatternRenderer(PatternSpaceRenderer * spaceRenderer, PatternShapeRenderer * shapeRenderer) : void
+~PatternRenderer() : void
..
+initialize() const : void
+render() const : void
+scaleChanged(float scale) const : void
+spaceRenderer() const : const PatternSpaceRenderer *
+upload() const : void
__
-shapeRenderer_ : PatternShapeRenderer *
-spaceRenderer_ : PatternSpaceRenderer *
}
class "Chrysalis::ProjectSpace" as C_0007088239576659478452
class C_0007088239576659478452 {
+~ProjectSpace() : void
..
+addCurve(const Point * from, const Point * to, const CG::Segment & segmentFrom, const CG::Segment & segmentTo, const std::vector<CG::Point> & points) : Curve *
+addPoint(double x, double y) : Point *
+addPoint(const CG::Point & point) : Point *
+getCurve(const Point * from, const Point * to) const : const Curve *
+hasCurve(const Point * from, const Point * to) const : bool
+movePoint(const Point * point, CG::Point position) const : void
{static} -serialize<Archive>(Archive &, const unsigned int) : void
__
-curves_ : std::unordered_map<const Point *,std::unordered_map<const Point *,Curve *>>
-points_ : std::unordered_set<Point *>
}
class "Chrysalis::BaseNamedElement" as C_0005941615759101781899
class C_0005941615759101781899 {
#BaseNamedElement() = default : void
#BaseNamedElement(const std::string & name) : void
..
+getAlias() const : const std::string &
+getName() const : const std::string &
+hasAlias() const : bool
#serialize<Archive>(Archive & archive, const unsigned int) : void
+setAlias(const std::string & alias) : void
+setName(const std::string & name) : void
__
-alias_ : boost::optional<std::string>
-name_ : std::string
}
class "Chrysalis::AssociativeContainer<T>" as C_0008219096566301061159
class C_0008219096566301061159 {
+AssociativeContainer() = default : void
+AssociativeContainer(std::initializer_list<T *> items) : void
+~AssociativeContainer() = default : void
..
+operator[](size_t index) const : T *
..
+add(T * item) : void
+begin() const : typename std::vector<T *>::const_iterator
+count() const : size_t
+end() const : typename std::vector<T *>::const_iterator
__
-items_ : std::vector<T *>
}
class "Chrysalis::CompositiveContainer<T>" as C_0005688742674269325206
class C_0005688742674269325206 {
+CompositiveContainer() = default : void
+CompositiveContainer(const std::initializer_list<T *> & items) : void
+~CompositiveContainer() : void
__
}
abstract "Chrysalis::BaseArgument<T>" as C_0004566211642871539975
abstract C_0004566211642871539975 {
#BaseArgument() = default : void
+~BaseArgument() = default : void
..
{abstract} +get() const = 0 : const T &
{abstract} +isValid() const = 0 : bool
{static} -serialize<Archive>(Archive &, const unsigned int) : void
__
}
class "Chrysalis::Argument<T>" as C_0000892009465423237500
class C_0000892009465423237500 {
+Argument(const T & value) : void
..
+get() const : const T &
+isValid() const : bool
+set(const T & value) : void
__
-value_ : T
}
class "Chrysalis::NamedElementsContainer<T>" as C_0004278681173875969640
class C_0004278681173875969640 {
+add(T * item) : void
+get(const std::string & name) const : T *
+has(const std::string & name) const : bool
-serialize<Archive>(Archive & archive, const unsigned int) : void
__
-names_ : std::unordered_map<std::string,T *>
}
class "Chrysalis::ScopedNamedElementsContainer<T>" as C_0013689811739584759896
class C_0013689811739584759896 {
+ScopedNamedElementsContainer() : void
+ScopedNamedElementsContainer(const ScopedNamedElementsContainer<T> * parent) : void
..
+get(const std::string & name) const : T *
+has(const std::string & name) const : bool
__
-parent_ : const ScopedNamedElementsContainer<T> *
}
class "Chrysalis::Argument<bool>" as C_0013902376426351804888
class C_0013902376426351804888 {
__
}
class "Chrysalis::Option" as C_0018272832358235078784
class C_0018272832358235078784 {
-Option() : void
+Option(const std::string & name) : void
..
{static} +createDefault(const std::string & name, bool isEnabled) : Option *
-serialize<Archive>(Archive & archive, const unsigned int) : void
+toggle() : void
__
}
class "Chrysalis::Outline" as C_0012923087791918137441
class C_0012923087791918137441 {
-Outline() = default : void
+Outline(const std::string & name) : void
..
+add(const Point * point) : void
+points() const : const std::vector<const Point *> &
-serialize<Archive>(Archive & archive, const unsigned int) : void
__
-points_ : std::vector<const Point *>
}
class "Chrysalis::NamedElementsContainer<Chrysalis::Outline>" as C_0011346594566273340276
class C_0011346594566273340276 {
__
}
class "Chrysalis::PatternSpace" as C_0006410388496936549037
class C_0006410388496936549037 {
+PatternSpace(OutlineContainer * outline) : void
+~PatternSpace() : void
..
+addPoint(const std::string & name, const Point * point) : void
+getLastPoint() const : const Point *
+getOutline() const : OutlineContainer *
+getPoint(const std::string & name) const : const Point *
+getPoints() const : const std::unordered_map<std::string,const Point *> &
+hasPoint(const std::string & name) const : bool
__
-lastPoint_ : const Point *
-outline_ : OutlineContainer *
-points_ : std::unordered_map<std::string,const Point *>
}
class "Chrysalis::Pattern" as C_0005824426893526781565
class C_0005824426893526781565 {
-Pattern() = default : void
+Pattern(const std::string & name, PatternSpace * space) : void
+~Pattern() : void
..
{static} +create(const std::string & name) : Pattern *
+getSpace() const : PatternSpace *
-serialize<Archive>(Archive & archive, const unsigned int) : void
__
-space_ : PatternSpace *
}
abstract "Chrysalis::ParameterObserver" as C_0000003872413291578334
abstract C_0000003872413291578334 {
#ParameterObserver() = default : void
#~ParameterObserver() constexpr = default : void
..
{abstract} +valueChanged(double value) = 0 : void
__
}
class "Chrysalis::Parameter" as C_0012811662139665247956
class C_0012811662139665247956 {
-Parameter() = default : void
+Parameter(const std::string & name) : void
..
{static} +create(const std::string & name, double value) : Parameter *
{static} +createDefault(const std::string & name, double defaultValue) : Parameter *
+getDefaultValue() const : double
+getValue() const : double
+hasDefaultValue() const : bool
+hasValue() const : bool
+isValid() const : bool
-serialize<Archive>(Archive & archive, const unsigned int) : void
+setDefaultValue(double defaultValue) : void
+setValue(double value) : void
__
-defaultValue_ : boost::optional<double>
-value_ : boost::optional<double>
}
abstract "Chrysalis::BaseCalculatedArgument<T>" as C_0006837253732787679527
abstract C_0006837253732787679527 {
#BaseCalculatedArgument() = default : void
#BaseCalculatedArgument(const T & value) : void
..
{abstract} #calculate() const = 0 : T
+get() const : const T &
-serialize<Archive>(Archive & archive, const unsigned int) : void
__
-value_ : boost::optional<T>
}
class "Chrysalis::BaseArgument<double>" as C_0001471877624587876994
class C_0001471877624587876994 {
__
}
class "Chrysalis::BaseCalculatedArgument<double>" as C_0014304995755461162082
class C_0014304995755461162082 {
__
}
class "Chrysalis::Expression" as C_0016508219162996417863
class C_0016508219162996417863 {
-Expression() = default : void
+Expression(const std::string & name, const args::number * expression) : void
+~Expression() : void
..
#calculate() const : double
+isValid() const : bool
-serialize<Archive>(Archive & archive, const unsigned int) : void
__
-expression_ : const args::number *
}
abstract "Chrysalis::BaseInstruction" as C_0002610049402694154836
abstract C_0002610049402694154836 {
#BaseInstruction() = default : void
+~BaseInstruction() constexpr = default : void
..
{abstract} +execute() = 0 : void
{abstract} +isValid() = 0 : bool
{static} -serialize<Archive>(Archive &, const unsigned int) : void
__
}
class "Chrysalis::ScopedNamedElementsContainer<Chrysalis::Option>" as C_0012830258875211278697
class C_0012830258875211278697 {
__
}
class "Chrysalis::ScopedNamedElementsContainer<Chrysalis::Expression>" as C_0010948345871383058968
class C_0010948345871383058968 {
__
}
class "Chrysalis::BaseInstructionsContainer<T>" as C_0009832473294063137986
class C_0009832473294063137986 {
+BaseInstructionsContainer(OptionsContainer * options, ExpressionsContainer * expressions) : void
..
+execute() : void
+expressions() const : ExpressionsContainer *
+isValid() : bool
+options() const : OptionsContainer *
__
-expressions_ : ExpressionsContainer *
-options_ : OptionsContainer *
}
class "Chrysalis::NamedElementsContainer<Chrysalis::Pattern>" as C_0000137605349055924040
class C_0000137605349055924040 {
__
}
class "Chrysalis::NamedElementsContainer<Chrysalis::Parameter>" as C_0009799515597078618207
class C_0009799515597078618207 {
__
}
class "Chrysalis::BaseInstructionsContainer<Chrysalis::BaseInstruction>" as C_0006795609084469128677
class C_0006795609084469128677 {
__
}
class "Chrysalis::Project" as C_0008495545694619727706
class C_0008495545694619727706 {
+Project(std::string name, ProjectSpace * space, PatternsContainer * patterns, ParametersContainer * parameters, OptionsContainer * options, ExpressionsContainer * expressions, InstructionsContainer * instructions) : void
+~Project() : void
..
{static} +create() : Project *
{static} +create(const std::string & name) : Project *
+getExpressions() const : ExpressionsContainer *
+getInstructions() const : InstructionsContainer *
+getName() : std::string
+getOptions() const : OptionsContainer *
+getParameters() const : ParametersContainer *
+getPatterns() const : PatternsContainer *
+getSpace() const : ProjectSpace *
{static} +read(const std::string & filePath) : Project *
+setName(const std::string & name) : void
{static} +write(const std::string & filePath, Project * project) : void
__
{static} +PROJECT_FILE_SUFFIX : const char *const
{static} +PROJECT_NAME_FILTER : const char *const
-expressions_ : ExpressionsContainer *
-instructions_ : InstructionsContainer *
-name_ : std::string
-options_ : OptionsContainer *
-parameters_ : ParametersContainer *
-patterns_ : PatternsContainer *
-space_ : ProjectSpace *
}
class "Chrysalis::ProjectRenderer" as C_0014065787526185037529
class C_0014065787526185037529 {
+ProjectRenderer(MainOpenGLProgram * program, CartesianRenderer * cartesianRenderer, CursorRenderer * cursorRenderer) : void
+~ProjectRenderer() : void
..
+areaOffsetChanged(float deltaX, float deltaY) : void
+areaSizeChanged(float width, float height) : void
+cursorPositionChanged(float x, float y) const : void
+initialize() const : void
#prepareNextFrame() const : bool
#render() const : void
+scaleChanged(float scaleFactor, float zoomX, float zoomY) : void
-updateProjectionMatrix() : void
#useProject(const Project * project) : void
__
-area_ : Area
-cartesianRenderer_ : CartesianRenderer *
-cursorRenderer_ : CursorRenderer *
-isInitialized_ : bool
-patternRenderers_ : std::list<PatternRenderer>
-program_ : MainOpenGLProgram *
-projection_ : glm::mat4x4
-scale_ : float
}
class "boost::optional<std::string>" as C_0015400050296189752630
class C_0015400050296189752630 {
__
}
class "boost::optional<double>" as C_0006902435785336449105
class C_0006902435785336449105 {
__
}
class "boost::optional<T>" as C_0003580494981378393278
class C_0003580494981378393278 {
__
}
class "BaseObservable<T>" as C_0002156575163525990045
class C_0002156575163525990045 {
#BaseObservable() = default : void
#~BaseObservable() = default : void
..
+addObserver(T * observer) : void
+notify<Args...,CallArgs...>(void (T::*)(Args...) function, CallArgs &&... args) : void
__
-observers_ : std::forward_list<T *>
}
class "BaseObservable<Chrysalis::PointObserver>" as C_0000658342064330119157
class C_0000658342064330119157 {
__
}
class "BaseObservable<Chrysalis::PatternSpaceObserver>" as C_0002692846997820672233
class C_0002692846997820672233 {
__
}
class "BaseObservable<Chrysalis::ParameterObserver>" as C_0007619089904892218042
class C_0007619089904892218042 {
__
}
C_0011714416178498922510 ..|> C_0014592205157828846112
C_0011714416178498922510 <|-- C_0006271128212356082639
C_0000658342064330119157 <|-- C_0004642218715827055853
C_0010648050014975774765 ..> C_0014045523936343269615
C_0003814330884215016651 ..|> C_0010648050014975774765
C_0011935714076265489658 o-- C_0014045523936343269615 : -data_
C_0003814330884215016651 <|-- C_0011935714076265489658
C_0009014904075807390969 <|-- C_0008404019008873523889
C_0009985944204983126988 ..|> C_0011449526761968468087
C_0012069508297492912490 --> C_0008404019008873523889 : -program_
C_0009985944204983126988 <|-- C_0012069508297492912490
C_0014045523936343269615 <|-- C_0014044642128017633618
C_0003071611879058204012 ..|> C_0010648050014975774765
C_0010368778014850136780 o-- C_0014044642128017633618 : -data_
C_0003071611879058204012 <|-- C_0010368778014850136780
C_0011449526761968468087 <|-- C_0006005639932984129856
C_0014979996669646431041 ..|> C_0006005639932984129856
C_0014720307744216466084 --> C_0008404019008873523889 : -program_
C_0014979996669646431041 <|-- C_0014720307744216466084
C_0003814330884215016651 <|-- C_0011694023645327839877
C_0015376512757975965057 ..|> C_0011449526761968468087
C_0015376512757975965057 <|-- C_0015064054511240045445
C_0011260122464657857622 o-- C_0014044642128017633618 : -points_
C_0011260122464657857622 o-- C_0014044642128017633618 : -arrows_
C_0011260122464657857622 o-- C_0014044642128017633618 : -lines_
C_0011260122464657857622 --> C_0004642218715827055853 : -pointIndices_
C_0011260122464657857622 --> C_0004642218715827055853 : -connectionsMapFrom_
C_0011260122464657857622 --> C_0004642218715827055853 : -connectionsMapTo_
C_0003071611879058204012 <|-- C_0011260122464657857622
C_0014124802283436931215 <|-- C_0011260122464657857622
C_0006271128212356082639 <|-- C_0011260122464657857622
C_0012563006101612362629 --+ C_0011260122464657857622
C_0000794775527725307768 ..|> C_0011449526761968468087
C_0008349615279724093078 --> C_0008404019008873523889 : -program_
C_0000794775527725307768 <|-- C_0008349615279724093078
C_0010886489269060501830 *-- C_0008349615279724093078 : -spaceRenderer_
C_0010886489269060501830 *-- C_0015064054511240045445 : -shapeRenderer_
C_0007088239576659478452 *-- C_0004642218715827055853 : -points_
C_0007088239576659478452 *-- C_0004642218715827055853 : -curves_
C_0007088239576659478452 *-- C_0018156493150910561312 : -curves_
C_0005941615759101781899 o-- C_0015400050296189752630 : -alias_
C_0008219096566301061159 <|-- C_0005688742674269325206
C_0004566211642871539975 <|-- C_0000892009465423237500
C_0005688742674269325206 <|-- C_0004278681173875969640
C_0004278681173875969640 <|-- C_0013689811739584759896
C_0013902376426351804888 ..|> C_0000892009465423237500
C_0005941615759101781899 <|-- C_0018272832358235078784
C_0013902376426351804888 <|-- C_0018272832358235078784
C_0012923087791918137441 --> C_0004642218715827055853 : -points_
C_0005941615759101781899 <|-- C_0012923087791918137441
C_0011346594566273340276 ..|> C_0004278681173875969640
C_0006410388496936549037 --> C_0004642218715827055853 : -lastPoint_
C_0006410388496936549037 *-- C_0012923087791918137441 : -outline_
C_0006410388496936549037 *-- C_0011346594566273340276 : -outline_
C_0006410388496936549037 *-- C_0004278681173875969640 : -outline_
C_0006410388496936549037 --> C_0004642218715827055853 : -points_
C_0002692846997820672233 <|-- C_0006410388496936549037
C_0005824426893526781565 *-- C_0006410388496936549037 : -space_
C_0005941615759101781899 <|-- C_0005824426893526781565
C_0012811662139665247956 o-- C_0006902435785336449105 : -value_
C_0012811662139665247956 o-- C_0006902435785336449105 : -defaultValue_
C_0005941615759101781899 <|-- C_0012811662139665247956
C_0007619089904892218042 <|-- C_0012811662139665247956
C_0006837253732787679527 o-- C_0003580494981378393278 : -value_
C_0004566211642871539975 <|-- C_0006837253732787679527
C_0001471877624587876994 ..|> C_0004566211642871539975
C_0014304995755461162082 ..|> C_0006837253732787679527
C_0016508219162996417863 --> C_0001471877624587876994 : -expression_
C_0016508219162996417863 --> C_0004566211642871539975 : -expression_
C_0005941615759101781899 <|-- C_0016508219162996417863
C_0014304995755461162082 <|-- C_0016508219162996417863
C_0012830258875211278697 ..|> C_0013689811739584759896
C_0010948345871383058968 ..|> C_0013689811739584759896
C_0009832473294063137986 *-- C_0018272832358235078784 : -options_
C_0009832473294063137986 *-- C_0012830258875211278697 : -options_
C_0009832473294063137986 *-- C_0013689811739584759896 : -options_
C_0009832473294063137986 *-- C_0016508219162996417863 : -expressions_
C_0009832473294063137986 *-- C_0010948345871383058968 : -expressions_
C_0009832473294063137986 *-- C_0013689811739584759896 : -expressions_
C_0002610049402694154836 <|-- C_0009832473294063137986
C_0005688742674269325206 <|-- C_0009832473294063137986
C_0000137605349055924040 ..|> C_0004278681173875969640
C_0009799515597078618207 ..|> C_0004278681173875969640
C_0006795609084469128677 ..|> C_0009832473294063137986
C_0008495545694619727706 *-- C_0007088239576659478452 : -space_
C_0008495545694619727706 *-- C_0018272832358235078784 : -options_
C_0008495545694619727706 *-- C_0012830258875211278697 : -options_
C_0008495545694619727706 *-- C_0013689811739584759896 : -options_
C_0008495545694619727706 *-- C_0005824426893526781565 : -patterns_
C_0008495545694619727706 *-- C_0000137605349055924040 : -patterns_
C_0008495545694619727706 *-- C_0004278681173875969640 : -patterns_
C_0008495545694619727706 *-- C_0012811662139665247956 : -parameters_
C_0008495545694619727706 *-- C_0009799515597078618207 : -parameters_
C_0008495545694619727706 *-- C_0004278681173875969640 : -parameters_
C_0008495545694619727706 *-- C_0016508219162996417863 : -expressions_
C_0008495545694619727706 *-- C_0010948345871383058968 : -expressions_
C_0008495545694619727706 *-- C_0013689811739584759896 : -expressions_
C_0008495545694619727706 *-- C_0002610049402694154836 : -instructions_
C_0008495545694619727706 *-- C_0006795609084469128677 : -instructions_
C_0008495545694619727706 *-- C_0009832473294063137986 : -instructions_
C_0014065787526185037529 o-- C_0017448836424981341256 : -area_
C_0014065787526185037529 *-- C_0008404019008873523889 : -program_
C_0014065787526185037529 *-- C_0014720307744216466084 : -cursorRenderer_
C_0014065787526185037529 *-- C_0012069508297492912490 : -cartesianRenderer_
C_0014065787526185037529 o-- C_0010886489269060501830 : -patternRenderers_
C_0000658342064330119157 ..|> C_0002156575163525990045
C_0002692846997820672233 ..|> C_0002156575163525990045
C_0007619089904892218042 ..|> C_0002156575163525990045
skinparam class {
  BackgroundColor #EAFAF1
  BorderColor #1E8449
  FontColor #0B5345
  AttributeFontColor #1E8449
  StereotypeFontColor #1E8449
  FontStyle Bold
}

skinparam class<<Base>> {
  BackgroundColor #F2F3F4
  BorderColor #2C3E50
  BorderThickness 3
  FontSize 16
  FontColor #2C3E50
  AttributeFontColor #566573
  StereotypeFontColor #808B96
  FontStyle Italic
}




 class C_0009014904075807390969 <<Base>> 

 class C_0002156575163525990045 <<Base>> 

 class C_0014592205157828846112 <<Base>> 

 class C_0011714416178498922510 <<Base>> 



 class C_0000658342064330119157 <<Base>> 





 class C_0010648050014975774765 <<Base>> 

 class C_0011449526761968468087 <<Base>> 

 class C_0003814330884215016651 <<Base>> 





 class C_0009985944204983126988 <<Base>> 





 class C_0003071611879058204012 <<Base>> 



 class C_0006005639932984129856 <<Base>> 

 class C_0014979996669646431041 <<Base>> 







 class C_0015376512757975965057 <<Base>> 











 class C_0000794775527725307768 <<Base>> 









 class C_0005941615759101781899 <<Base>> 





 class C_0004566211642871539975 <<Base>> 















 class C_0002692846997820672233 <<Base>> 









 class C_0007619089904892218042 <<Base>> 





 class C_0006837253732787679527 <<Base>> 

 class C_0001471877624587876994 <<Base>> 

 class C_0014304995755461162082 <<Base>> 



 class C_0002610049402694154836 <<Base>> 





 class C_0009832473294063137986 <<Base>> 





 class C_0006795609084469128677 <<Base>> 







'Generated with clang-uml, version 0.6.2
'LLVM version clang version 20.1.7 (https://github.com/llvm/llvm-project.git 6146a88f60492b520a36f8f8f3231e15f3cc6082)
@enduml
